%TF.GenerationSoftware,KiCad,Pcbnew,8.0.5*%
%TF.CreationDate,2024-11-11T15:34:29+00:00*%
%TF.ProjectId,kybd,6b796264-2e6b-4696-9361-645f70636258,v1.0.0*%
%TF.SameCoordinates,Original*%
%TF.FileFunction,Soldermask,Bot*%
%TF.FilePolarity,Negative*%
%FSLAX46Y46*%
G04 Gerber Fmt 4.6, Leading zero omitted, Abs format (unit mm)*
G04 Created by KiCad (PCBNEW 8.0.5) date 2024-11-11 15:34:29*
%MOMM*%
%LPD*%
G01*
G04 APERTURE LIST*
G04 Aperture macros list*
%AMRoundRect*
0 Rectangle with rounded corners*
0 $1 Rounding radius*
0 $2 $3 $4 $5 $6 $7 $8 $9 X,Y pos of 4 corners*
0 Add a 4 corners polygon primitive as box body*
4,1,4,$2,$3,$4,$5,$6,$7,$8,$9,$2,$3,0*
0 Add four circle primitives for the rounded corners*
1,1,$1+$1,$2,$3*
1,1,$1+$1,$4,$5*
1,1,$1+$1,$6,$7*
1,1,$1+$1,$8,$9*
0 Add four rect primitives between the rounded corners*
20,1,$1+$1,$2,$3,$4,$5,0*
20,1,$1+$1,$4,$5,$6,$7,0*
20,1,$1+$1,$6,$7,$8,$9,0*
20,1,$1+$1,$8,$9,$2,$3,0*%
%AMRotRect*
0 Rectangle, with rotation*
0 The origin of the aperture is its center*
0 $1 length*
0 $2 width*
0 $3 Rotation angle, in degrees counterclockwise*
0 Add horizontal line*
21,1,$1,$2,0,0,$3*%
%AMFreePoly0*
4,1,6,1.300000,-1.300000,-0.050000,-1.300000,-1.300000,-0.250000,-1.300000,1.300000,1.300000,1.300000,1.300000,-1.300000,1.300000,-1.300000,$1*%
%AMFreePoly1*
4,1,6,0.500000,-0.625000,-0.650000,-0.625000,-0.150000,0.000000,-0.650000,0.625000,0.500000,0.625000,0.500000,-0.625000,0.500000,-0.625000,$1*%
%AMFreePoly2*
4,1,6,0.250000,0.000000,-0.250000,-0.625000,-0.500000,-0.625000,-0.500000,0.625000,-0.250000,0.625000,0.250000,0.000000,0.250000,0.000000,$1*%
G04 Aperture macros list end*
%ADD10RotRect,0.900000X1.200000X255.000000*%
%ADD11R,1.400000X1.050000*%
%ADD12R,1.200000X0.900000*%
%ADD13C,1.701800*%
%ADD14C,3.000000*%
%ADD15C,3.429000*%
%ADD16FreePoly0,180.000000*%
%ADD17R,2.600000X2.600000*%
%ADD18O,1.700000X1.700000*%
%ADD19C,1.700000*%
%ADD20R,1.200000X0.600000*%
%ADD21FreePoly0,165.000000*%
%ADD22RotRect,2.600000X2.600000X165.000000*%
%ADD23FreePoly0,55.000000*%
%ADD24RotRect,2.600000X2.600000X55.000000*%
%ADD25FreePoly1,0.000000*%
%ADD26C,0.800000*%
%ADD27FreePoly2,180.000000*%
%ADD28FreePoly2,0.000000*%
%ADD29FreePoly1,180.000000*%
%ADD30RotRect,0.900000X1.200000X145.000000*%
%ADD31RoundRect,0.240000X0.635000X-0.360000X0.635000X0.360000X-0.635000X0.360000X-0.635000X-0.360000X0*%
%ADD32O,1.750000X1.200000*%
%ADD33R,1.400000X1.000000*%
%ADD34RotRect,1.400000X1.000000X235.000000*%
%ADD35RotRect,1.400000X1.000000X165.000000*%
%ADD36R,1.000000X0.800000*%
%ADD37C,0.900000*%
%ADD38R,0.700000X1.500000*%
%ADD39RoundRect,0.112500X0.637500X-0.112500X0.637500X0.112500X-0.637500X0.112500X-0.637500X-0.112500X0*%
G04 APERTURE END LIST*
D10*
%TO.C,D20*%
X164744350Y-87337222D03*
X163890250Y-90524778D03*
%TD*%
D11*
%TO.C,SW1*%
X91300000Y-28620000D03*
X94900000Y-28620000D03*
X91300000Y-27180000D03*
X94900000Y-27180000D03*
%TD*%
D12*
%TO.C,D5*%
X100100000Y-52750000D03*
X100100000Y-56050000D03*
%TD*%
%TO.C,D17*%
X172500000Y-50750000D03*
X172500000Y-54050000D03*
%TD*%
D13*
%TO.C,S20*%
X140900000Y-87500000D03*
D14*
X140400000Y-91250000D03*
X135400000Y-93450000D03*
D15*
X135400000Y-87500000D03*
D14*
X130400000Y-91250000D03*
D13*
X129900000Y-87500000D03*
D16*
X138675000Y-93450000D03*
D17*
X127125000Y-91250000D03*
%TD*%
D13*
%TO.C,S10*%
X116700000Y-35800000D03*
D14*
X116200000Y-39550000D03*
X111200000Y-41750000D03*
D15*
X111200000Y-35800000D03*
D14*
X106200000Y-39550000D03*
D13*
X105700000Y-35800000D03*
D16*
X114475000Y-41750000D03*
D17*
X102925000Y-39550000D03*
%TD*%
D13*
%TO.C,S8*%
X116700000Y-70000000D03*
D14*
X116200000Y-73750000D03*
X111200000Y-75950000D03*
D15*
X111200000Y-70000000D03*
D14*
X106200000Y-73750000D03*
D13*
X105700000Y-70000000D03*
D16*
X114475000Y-75950000D03*
D17*
X102925000Y-73750000D03*
%TD*%
D12*
%TO.C,D19*%
X142400000Y-82350000D03*
X142400000Y-85650000D03*
%TD*%
D13*
%TO.C,S4*%
X80500000Y-40800000D03*
D14*
X80000000Y-44550000D03*
X75000000Y-46750000D03*
D15*
X75000000Y-40800000D03*
D14*
X70000000Y-44550000D03*
D13*
X69500000Y-40800000D03*
D16*
X78275000Y-46750000D03*
D17*
X66725000Y-44550000D03*
%TD*%
D12*
%TO.C,D10*%
X136300000Y-61850000D03*
X136300000Y-65150000D03*
%TD*%
%TO.C,D15*%
X154400000Y-30650000D03*
X154400000Y-33950000D03*
%TD*%
D13*
%TO.C,S14*%
X152900000Y-70000000D03*
D14*
X152400000Y-73750000D03*
X147400000Y-75950000D03*
D15*
X147400000Y-70000000D03*
D14*
X142400000Y-73750000D03*
D13*
X141900000Y-70000000D03*
D16*
X150675000Y-75950000D03*
D17*
X139125000Y-73750000D03*
%TD*%
D13*
%TO.C,S2*%
X80500000Y-75000000D03*
D14*
X80000000Y-78750000D03*
X75000000Y-80950000D03*
D15*
X75000000Y-75000000D03*
D14*
X70000000Y-78750000D03*
D13*
X69500000Y-75000000D03*
D16*
X78275000Y-80950000D03*
D17*
X66725000Y-78750000D03*
%TD*%
D12*
%TO.C,D8*%
X118200000Y-47750000D03*
X118200000Y-51050000D03*
%TD*%
D13*
%TO.C,S5*%
X98600000Y-75000000D03*
D14*
X98100000Y-78750000D03*
X93100000Y-80950000D03*
D15*
X93100000Y-75000000D03*
D14*
X88100000Y-78750000D03*
D13*
X87600000Y-75000000D03*
D16*
X96375000Y-80950000D03*
D17*
X84825000Y-78750000D03*
%TD*%
D12*
%TO.C,D7*%
X118200000Y-64850000D03*
X118200000Y-68150000D03*
%TD*%
D13*
%TO.C,S18*%
X171000000Y-55900000D03*
D14*
X170500000Y-59650000D03*
X165500000Y-61850000D03*
D15*
X165500000Y-55900000D03*
D14*
X160500000Y-59650000D03*
D13*
X160000000Y-55900000D03*
D16*
X168775000Y-61850000D03*
D17*
X157225000Y-59650000D03*
%TD*%
D12*
%TO.C,D4*%
X100100000Y-69850000D03*
X100100000Y-73150000D03*
%TD*%
D18*
%TO.C,DISP1*%
X181420000Y-70000000D03*
X183960000Y-70000000D03*
X186500000Y-70000000D03*
X189040000Y-70000000D03*
D19*
X191580000Y-70000000D03*
D20*
X191580000Y-69150000D03*
X189040000Y-69150000D03*
X183960000Y-69150000D03*
X181420000Y-69150000D03*
X191580000Y-68250000D03*
X189040000Y-68250000D03*
X183960000Y-68250000D03*
X181420000Y-68250000D03*
%TD*%
D13*
%TO.C,S11*%
X134800000Y-67000000D03*
D14*
X134300000Y-70750000D03*
X129300000Y-72950000D03*
D15*
X129300000Y-67000000D03*
D14*
X124300000Y-70750000D03*
D13*
X123800000Y-67000000D03*
D16*
X132575000Y-72950000D03*
D17*
X121025000Y-70750000D03*
%TD*%
D12*
%TO.C,D6*%
X100100000Y-35650000D03*
X100100000Y-38950000D03*
%TD*%
%TO.C,D1*%
X82000000Y-69850000D03*
X82000000Y-73150000D03*
%TD*%
D13*
%TO.C,S17*%
X171000000Y-73000000D03*
D14*
X170500000Y-76750000D03*
X165500000Y-78950000D03*
D15*
X165500000Y-73000000D03*
D14*
X160500000Y-76750000D03*
D13*
X160000000Y-73000000D03*
D16*
X168775000Y-78950000D03*
D17*
X157225000Y-76750000D03*
%TD*%
D13*
%TO.C,S6*%
X98600000Y-57900000D03*
D14*
X98100000Y-61650000D03*
X93100000Y-63850000D03*
D15*
X93100000Y-57900000D03*
D14*
X88100000Y-61650000D03*
D13*
X87600000Y-57900000D03*
D16*
X96375000Y-63850000D03*
D17*
X84825000Y-61650000D03*
%TD*%
D13*
%TO.C,S15*%
X152900000Y-52900000D03*
D14*
X152400000Y-56650000D03*
X147400000Y-58850000D03*
D15*
X147400000Y-52900000D03*
D14*
X142400000Y-56650000D03*
D13*
X141900000Y-52900000D03*
D16*
X150675000Y-58850000D03*
D17*
X139125000Y-56650000D03*
%TD*%
D12*
%TO.C,D13*%
X154400000Y-64850000D03*
X154400000Y-68150000D03*
%TD*%
D13*
%TO.C,S21*%
X161962592Y-91923505D03*
D14*
X160509058Y-95416317D03*
X155110027Y-96247259D03*
D15*
X156650000Y-90500000D03*
D14*
X150849799Y-92828127D03*
D13*
X151337408Y-89076495D03*
D21*
X158273434Y-97094891D03*
D22*
X147686392Y-91980494D03*
%TD*%
D13*
%TO.C,S1*%
X175953130Y-101022836D03*
D14*
X173168098Y-98462349D03*
X174233845Y-93104720D03*
D15*
X179107800Y-96517500D03*
D14*
X178903862Y-90270828D03*
D13*
X182262470Y-92012164D03*
D23*
X172355383Y-95787443D03*
D24*
X180782325Y-87588105D03*
%TD*%
D12*
%TO.C,D3*%
X82000000Y-35650000D03*
X82000000Y-38950000D03*
%TD*%
D13*
%TO.C,S19*%
X171000000Y-38800000D03*
D14*
X170500000Y-42550000D03*
X165500000Y-44750000D03*
D15*
X165500000Y-38800000D03*
D14*
X160500000Y-42550000D03*
D13*
X160000000Y-38800000D03*
D16*
X168775000Y-44750000D03*
D17*
X157225000Y-42550000D03*
%TD*%
D25*
%TO.C,MCU1*%
X181725000Y-37600000D03*
D26*
X189762000Y-37600000D03*
D27*
X192000000Y-37600000D03*
D19*
X194120000Y-37600000D03*
D25*
X181725000Y-40140000D03*
D26*
X189762000Y-40140000D03*
D27*
X192000000Y-40140000D03*
D19*
X194120000Y-40140000D03*
D25*
X181725000Y-42680000D03*
D26*
X189762000Y-42680000D03*
D27*
X192000000Y-42680000D03*
D19*
X194120000Y-42680000D03*
D25*
X181725000Y-45220000D03*
D26*
X189762000Y-45220000D03*
D27*
X192000000Y-45220000D03*
D19*
X194120000Y-45220000D03*
D25*
X181725000Y-47760000D03*
D26*
X189762000Y-47760000D03*
D27*
X192000000Y-47760000D03*
D19*
X194120000Y-47760000D03*
D25*
X181725000Y-50300000D03*
D26*
X189762000Y-50300000D03*
D27*
X192000000Y-50300000D03*
D19*
X194120000Y-50300000D03*
D25*
X181725000Y-52840000D03*
D26*
X189762000Y-52840000D03*
D27*
X192000000Y-52840000D03*
D19*
X194120000Y-52840000D03*
D25*
X181725000Y-55380000D03*
D26*
X189762000Y-55380000D03*
D27*
X192000000Y-55380000D03*
D19*
X194120000Y-55380000D03*
D25*
X181725000Y-57920000D03*
D26*
X189762000Y-57920000D03*
D27*
X192000000Y-57920000D03*
D19*
X194120000Y-57920000D03*
D25*
X181725000Y-60460000D03*
D26*
X189762000Y-60460000D03*
D27*
X192000000Y-60460000D03*
D19*
X194120000Y-60460000D03*
D25*
X181725000Y-63000000D03*
D26*
X189762000Y-63000000D03*
D27*
X192000000Y-63000000D03*
D19*
X194120000Y-63000000D03*
D25*
X181725000Y-65540000D03*
D26*
X189762000Y-65540000D03*
D27*
X192000000Y-65540000D03*
D19*
X194120000Y-65540000D03*
X178880000Y-65540000D03*
D28*
X181000000Y-65540000D03*
D19*
X178880000Y-63000000D03*
D28*
X181000000Y-63000000D03*
D19*
X178880000Y-60460000D03*
D28*
X181000000Y-60460000D03*
D19*
X178880000Y-57920000D03*
D28*
X181000000Y-57920000D03*
D19*
X178880000Y-55380000D03*
D28*
X181000000Y-55380000D03*
D19*
X178880000Y-52840000D03*
D28*
X181000000Y-52840000D03*
D19*
X178880000Y-50300000D03*
D28*
X181000000Y-50300000D03*
D19*
X178880000Y-47760000D03*
D28*
X181000000Y-47760000D03*
D19*
X178880000Y-45220000D03*
D28*
X181000000Y-45220000D03*
D19*
X178880000Y-42680000D03*
D28*
X181000000Y-42680000D03*
D19*
X178880000Y-40140000D03*
D28*
X181000000Y-40140000D03*
D19*
X178880000Y-37600000D03*
D28*
X181000000Y-37600000D03*
D26*
X183238000Y-65540000D03*
D29*
X191275000Y-65540000D03*
D26*
X183238000Y-63000000D03*
D29*
X191275000Y-63000000D03*
D26*
X183238000Y-60460000D03*
D29*
X191275000Y-60460000D03*
D26*
X183238000Y-57920000D03*
D29*
X191275000Y-57920000D03*
D26*
X183238000Y-55380000D03*
D29*
X191275000Y-55380000D03*
D26*
X183238000Y-52840000D03*
D29*
X191275000Y-52840000D03*
D26*
X183238000Y-50300000D03*
D29*
X191275000Y-50300000D03*
D26*
X183238000Y-47760000D03*
D29*
X191275000Y-47760000D03*
D26*
X183238000Y-45220000D03*
D29*
X191275000Y-45220000D03*
D26*
X183238000Y-42680000D03*
D29*
X191275000Y-42680000D03*
D26*
X183238000Y-40140000D03*
D29*
X191275000Y-40140000D03*
D26*
X183238000Y-37600000D03*
D29*
X191275000Y-37600000D03*
%TD*%
D13*
%TO.C,S7*%
X98600000Y-40800000D03*
D14*
X98100000Y-44550000D03*
X93100000Y-46750000D03*
D15*
X93100000Y-40800000D03*
D14*
X88100000Y-44550000D03*
D13*
X87600000Y-40800000D03*
D16*
X96375000Y-46750000D03*
D17*
X84825000Y-44550000D03*
%TD*%
D30*
%TO.C,D21*%
X179311401Y-105205501D03*
X176608199Y-103312699D03*
%TD*%
D12*
%TO.C,D11*%
X136300000Y-44750000D03*
X136300000Y-48050000D03*
%TD*%
%TO.C,D16*%
X172500000Y-67850000D03*
X172500000Y-71150000D03*
%TD*%
%TO.C,D18*%
X172500000Y-33650000D03*
X172500000Y-36950000D03*
%TD*%
D31*
%TO.C,JST1*%
X183500000Y-76300000D03*
D32*
X183500000Y-74300000D03*
%TD*%
D13*
%TO.C,S9*%
X116700000Y-52900000D03*
D14*
X116200000Y-56650000D03*
X111200000Y-58850000D03*
D15*
X111200000Y-52900000D03*
D14*
X106200000Y-56650000D03*
D13*
X105700000Y-52900000D03*
D16*
X114475000Y-58850000D03*
D17*
X102925000Y-56650000D03*
%TD*%
D12*
%TO.C,D14*%
X154400000Y-47750000D03*
X154400000Y-51050000D03*
%TD*%
D13*
%TO.C,S12*%
X134800000Y-49900000D03*
D14*
X134300000Y-53650000D03*
X129300000Y-55850000D03*
D15*
X129300000Y-49900000D03*
D14*
X124300000Y-53650000D03*
D13*
X123800000Y-49900000D03*
D16*
X132575000Y-55850000D03*
D17*
X121025000Y-53650000D03*
%TD*%
D12*
%TO.C,D2*%
X82000000Y-52750000D03*
X82000000Y-56050000D03*
%TD*%
%TO.C,D12*%
X136300000Y-27650000D03*
X136300000Y-30950000D03*
%TD*%
D13*
%TO.C,S16*%
X152900000Y-35800000D03*
D14*
X152400000Y-39550000D03*
X147400000Y-41750000D03*
D15*
X147400000Y-35800000D03*
D14*
X142400000Y-39550000D03*
D13*
X141900000Y-35800000D03*
D16*
X150675000Y-41750000D03*
D17*
X139125000Y-39550000D03*
%TD*%
D12*
%TO.C,D9*%
X118200000Y-30650000D03*
X118200000Y-33950000D03*
%TD*%
D13*
%TO.C,S13*%
X134800000Y-32800000D03*
D14*
X134300000Y-36550000D03*
X129300000Y-38750000D03*
D15*
X129300000Y-32800000D03*
D14*
X124300000Y-36550000D03*
D13*
X123800000Y-32800000D03*
D16*
X132575000Y-38750000D03*
D17*
X121025000Y-36550000D03*
%TD*%
D13*
%TO.C,S3*%
X80500000Y-57900000D03*
D14*
X80000000Y-61650000D03*
X75000000Y-63850000D03*
D15*
X75000000Y-57900000D03*
D14*
X70000000Y-61650000D03*
D13*
X69500000Y-57900000D03*
D16*
X78275000Y-63850000D03*
D17*
X66725000Y-61650000D03*
%TD*%
D33*
%TO.C,LED3*%
X132000000Y-29000000D03*
X132000000Y-27600000D03*
X126600000Y-27600000D03*
X126600000Y-29000000D03*
%TD*%
%TO.C,LED1*%
X168200000Y-35000000D03*
X168200000Y-33600000D03*
X162800000Y-33600000D03*
X162800000Y-35000000D03*
%TD*%
%TO.C,LED18*%
X77700000Y-71200000D03*
X77700000Y-69800000D03*
X72300000Y-69800000D03*
X72300000Y-71200000D03*
%TD*%
%TO.C,LED15*%
X132000000Y-63200000D03*
X132000000Y-61800000D03*
X126600000Y-61800000D03*
X126600000Y-63200000D03*
%TD*%
D34*
%TO.C,LED21*%
X180671937Y-100908807D03*
X181818750Y-101711814D03*
X184916063Y-97288393D03*
X183769250Y-96485386D03*
%TD*%
D33*
%TO.C,LED6*%
X77700000Y-37000000D03*
X77700000Y-35600000D03*
X72300000Y-35600000D03*
X72300000Y-37000000D03*
%TD*%
%TO.C,LED11*%
X144700000Y-47700000D03*
X144700000Y-49100000D03*
X150100000Y-49100000D03*
X150100000Y-47700000D03*
%TD*%
D35*
%TO.C,LED20*%
X155387874Y-84778340D03*
X155025527Y-86130637D03*
X160241526Y-87528260D03*
X160603873Y-86175963D03*
%TD*%
D33*
%TO.C,LED7*%
X72300000Y-52700000D03*
X72300000Y-54100000D03*
X77700000Y-54100000D03*
X77700000Y-52700000D03*
%TD*%
%TO.C,LED17*%
X95800000Y-71200000D03*
X95800000Y-69800000D03*
X90400000Y-69800000D03*
X90400000Y-71200000D03*
%TD*%
%TO.C,LED19*%
X132700000Y-82300000D03*
X132700000Y-83700000D03*
X138100000Y-83700000D03*
X138100000Y-82300000D03*
%TD*%
%TO.C,LED9*%
X108500000Y-47700000D03*
X108500000Y-49100000D03*
X113900000Y-49100000D03*
X113900000Y-47700000D03*
%TD*%
%TO.C,LED14*%
X150100000Y-66200000D03*
X150100000Y-64800000D03*
X144700000Y-64800000D03*
X144700000Y-66200000D03*
%TD*%
%TO.C,LED5*%
X95800000Y-37000000D03*
X95800000Y-35600000D03*
X90400000Y-35600000D03*
X90400000Y-37000000D03*
%TD*%
%TO.C,LED12*%
X162800000Y-50700000D03*
X162800000Y-52100000D03*
X168200000Y-52100000D03*
X168200000Y-50700000D03*
%TD*%
%TO.C,LED10*%
X126600000Y-44700000D03*
X126600000Y-46100000D03*
X132000000Y-46100000D03*
X132000000Y-44700000D03*
%TD*%
D36*
%TO.C,PWR1*%
X71350000Y-29085000D03*
X78650000Y-29085000D03*
D37*
X73500000Y-27975000D03*
X76500000Y-27975000D03*
D36*
X71350000Y-26875000D03*
X78650000Y-26875000D03*
D38*
X72750000Y-29735000D03*
X75750000Y-29735000D03*
X77250000Y-29735000D03*
%TD*%
D33*
%TO.C,LED4*%
X113900000Y-32000000D03*
X113900000Y-30600000D03*
X108500000Y-30600000D03*
X108500000Y-32000000D03*
%TD*%
D39*
%TO.C,D22*%
X189830000Y-84650000D03*
X189830000Y-85950000D03*
X187170000Y-85300000D03*
%TD*%
D33*
%TO.C,LED13*%
X168200000Y-69200000D03*
X168200000Y-67800000D03*
X162800000Y-67800000D03*
X162800000Y-69200000D03*
%TD*%
%TO.C,LED8*%
X90400000Y-52700000D03*
X90400000Y-54100000D03*
X95800000Y-54100000D03*
X95800000Y-52700000D03*
%TD*%
%TO.C,LED16*%
X113900000Y-66200000D03*
X113900000Y-64800000D03*
X108500000Y-64800000D03*
X108500000Y-66200000D03*
%TD*%
%TO.C,LED2*%
X150100000Y-32000000D03*
X150100000Y-30600000D03*
X144700000Y-30600000D03*
X144700000Y-32000000D03*
%TD*%
M02*
