%TF.GenerationSoftware,KiCad,Pcbnew,8.0.5*%
%TF.CreationDate,2024-11-11T15:34:28+00:00*%
%TF.ProjectId,kybd,6b796264-2e6b-4696-9361-645f70636258,v1.0.0*%
%TF.SameCoordinates,Original*%
%TF.FileFunction,Legend,Bot*%
%TF.FilePolarity,Positive*%
%FSLAX46Y46*%
G04 Gerber Fmt 4.6, Leading zero omitted, Abs format (unit mm)*
G04 Created by KiCad (PCBNEW 8.0.5) date 2024-11-11 15:34:28*
%MOMM*%
%LPD*%
G01*
G04 APERTURE LIST*
%ADD10C,0.150000*%
%ADD11C,0.100000*%
%ADD12C,0.120000*%
G04 APERTURE END LIST*
D10*
X188653696Y-58206104D02*
X188691792Y-58244200D01*
X188691792Y-58244200D02*
X188806077Y-58282295D01*
X188806077Y-58282295D02*
X188882268Y-58282295D01*
X188882268Y-58282295D02*
X188996554Y-58244200D01*
X188996554Y-58244200D02*
X189072744Y-58168009D01*
X189072744Y-58168009D02*
X189110839Y-58091819D01*
X189110839Y-58091819D02*
X189148935Y-57939438D01*
X189148935Y-57939438D02*
X189148935Y-57825152D01*
X189148935Y-57825152D02*
X189110839Y-57672771D01*
X189110839Y-57672771D02*
X189072744Y-57596580D01*
X189072744Y-57596580D02*
X188996554Y-57520390D01*
X188996554Y-57520390D02*
X188882268Y-57482295D01*
X188882268Y-57482295D02*
X188806077Y-57482295D01*
X188806077Y-57482295D02*
X188691792Y-57520390D01*
X188691792Y-57520390D02*
X188653696Y-57558485D01*
X187929887Y-57482295D02*
X188310839Y-57482295D01*
X188310839Y-57482295D02*
X188348935Y-57863247D01*
X188348935Y-57863247D02*
X188310839Y-57825152D01*
X188310839Y-57825152D02*
X188234649Y-57787057D01*
X188234649Y-57787057D02*
X188044173Y-57787057D01*
X188044173Y-57787057D02*
X187967982Y-57825152D01*
X187967982Y-57825152D02*
X187929887Y-57863247D01*
X187929887Y-57863247D02*
X187891792Y-57939438D01*
X187891792Y-57939438D02*
X187891792Y-58129914D01*
X187891792Y-58129914D02*
X187929887Y-58206104D01*
X187929887Y-58206104D02*
X187967982Y-58244200D01*
X187967982Y-58244200D02*
X188044173Y-58282295D01*
X188044173Y-58282295D02*
X188234649Y-58282295D01*
X188234649Y-58282295D02*
X188310839Y-58244200D01*
X188310839Y-58244200D02*
X188348935Y-58206104D01*
X184612969Y-37886104D02*
X184651065Y-37924200D01*
X184651065Y-37924200D02*
X184765350Y-37962295D01*
X184765350Y-37962295D02*
X184841541Y-37962295D01*
X184841541Y-37962295D02*
X184955827Y-37924200D01*
X184955827Y-37924200D02*
X185032017Y-37848009D01*
X185032017Y-37848009D02*
X185070112Y-37771819D01*
X185070112Y-37771819D02*
X185108208Y-37619438D01*
X185108208Y-37619438D02*
X185108208Y-37505152D01*
X185108208Y-37505152D02*
X185070112Y-37352771D01*
X185070112Y-37352771D02*
X185032017Y-37276580D01*
X185032017Y-37276580D02*
X184955827Y-37200390D01*
X184955827Y-37200390D02*
X184841541Y-37162295D01*
X184841541Y-37162295D02*
X184765350Y-37162295D01*
X184765350Y-37162295D02*
X184651065Y-37200390D01*
X184651065Y-37200390D02*
X184612969Y-37238485D01*
X184308208Y-37924200D02*
X184193922Y-37962295D01*
X184193922Y-37962295D02*
X184003446Y-37962295D01*
X184003446Y-37962295D02*
X183927255Y-37924200D01*
X183927255Y-37924200D02*
X183889160Y-37886104D01*
X183889160Y-37886104D02*
X183851065Y-37809914D01*
X183851065Y-37809914D02*
X183851065Y-37733723D01*
X183851065Y-37733723D02*
X183889160Y-37657533D01*
X183889160Y-37657533D02*
X183927255Y-37619438D01*
X183927255Y-37619438D02*
X184003446Y-37581342D01*
X184003446Y-37581342D02*
X184155827Y-37543247D01*
X184155827Y-37543247D02*
X184232017Y-37505152D01*
X184232017Y-37505152D02*
X184270112Y-37467057D01*
X184270112Y-37467057D02*
X184308208Y-37390866D01*
X184308208Y-37390866D02*
X184308208Y-37314676D01*
X184308208Y-37314676D02*
X184270112Y-37238485D01*
X184270112Y-37238485D02*
X184232017Y-37200390D01*
X184232017Y-37200390D02*
X184155827Y-37162295D01*
X184155827Y-37162295D02*
X183965350Y-37162295D01*
X183965350Y-37162295D02*
X183851065Y-37200390D01*
X188653696Y-65902295D02*
X188920363Y-65521342D01*
X189110839Y-65902295D02*
X189110839Y-65102295D01*
X189110839Y-65102295D02*
X188806077Y-65102295D01*
X188806077Y-65102295D02*
X188729887Y-65140390D01*
X188729887Y-65140390D02*
X188691792Y-65178485D01*
X188691792Y-65178485D02*
X188653696Y-65254676D01*
X188653696Y-65254676D02*
X188653696Y-65368961D01*
X188653696Y-65368961D02*
X188691792Y-65445152D01*
X188691792Y-65445152D02*
X188729887Y-65483247D01*
X188729887Y-65483247D02*
X188806077Y-65521342D01*
X188806077Y-65521342D02*
X189110839Y-65521342D01*
X188387030Y-65102295D02*
X187891792Y-65102295D01*
X187891792Y-65102295D02*
X188158458Y-65407057D01*
X188158458Y-65407057D02*
X188044173Y-65407057D01*
X188044173Y-65407057D02*
X187967982Y-65445152D01*
X187967982Y-65445152D02*
X187929887Y-65483247D01*
X187929887Y-65483247D02*
X187891792Y-65559438D01*
X187891792Y-65559438D02*
X187891792Y-65749914D01*
X187891792Y-65749914D02*
X187929887Y-65826104D01*
X187929887Y-65826104D02*
X187967982Y-65864200D01*
X187967982Y-65864200D02*
X188044173Y-65902295D01*
X188044173Y-65902295D02*
X188272744Y-65902295D01*
X188272744Y-65902295D02*
X188348935Y-65864200D01*
X188348935Y-65864200D02*
X188387030Y-65826104D01*
X188653696Y-55666104D02*
X188691792Y-55704200D01*
X188691792Y-55704200D02*
X188806077Y-55742295D01*
X188806077Y-55742295D02*
X188882268Y-55742295D01*
X188882268Y-55742295D02*
X188996554Y-55704200D01*
X188996554Y-55704200D02*
X189072744Y-55628009D01*
X189072744Y-55628009D02*
X189110839Y-55551819D01*
X189110839Y-55551819D02*
X189148935Y-55399438D01*
X189148935Y-55399438D02*
X189148935Y-55285152D01*
X189148935Y-55285152D02*
X189110839Y-55132771D01*
X189110839Y-55132771D02*
X189072744Y-55056580D01*
X189072744Y-55056580D02*
X188996554Y-54980390D01*
X188996554Y-54980390D02*
X188882268Y-54942295D01*
X188882268Y-54942295D02*
X188806077Y-54942295D01*
X188806077Y-54942295D02*
X188691792Y-54980390D01*
X188691792Y-54980390D02*
X188653696Y-55018485D01*
X187967982Y-55208961D02*
X187967982Y-55742295D01*
X188158458Y-54904200D02*
X188348935Y-55475628D01*
X188348935Y-55475628D02*
X187853696Y-55475628D01*
X185908207Y-58282295D02*
X185908207Y-57482295D01*
X185908207Y-57482295D02*
X185451064Y-58282295D01*
X185451064Y-58282295D02*
X185451064Y-57482295D01*
X184612969Y-58206104D02*
X184651065Y-58244200D01*
X184651065Y-58244200D02*
X184765350Y-58282295D01*
X184765350Y-58282295D02*
X184841541Y-58282295D01*
X184841541Y-58282295D02*
X184955827Y-58244200D01*
X184955827Y-58244200D02*
X185032017Y-58168009D01*
X185032017Y-58168009D02*
X185070112Y-58091819D01*
X185070112Y-58091819D02*
X185108208Y-57939438D01*
X185108208Y-57939438D02*
X185108208Y-57825152D01*
X185108208Y-57825152D02*
X185070112Y-57672771D01*
X185070112Y-57672771D02*
X185032017Y-57596580D01*
X185032017Y-57596580D02*
X184955827Y-57520390D01*
X184955827Y-57520390D02*
X184841541Y-57482295D01*
X184841541Y-57482295D02*
X184765350Y-57482295D01*
X184765350Y-57482295D02*
X184651065Y-57520390D01*
X184651065Y-57520390D02*
X184612969Y-57558485D01*
X184346303Y-57482295D02*
X183851065Y-57482295D01*
X183851065Y-57482295D02*
X184117731Y-57787057D01*
X184117731Y-57787057D02*
X184003446Y-57787057D01*
X184003446Y-57787057D02*
X183927255Y-57825152D01*
X183927255Y-57825152D02*
X183889160Y-57863247D01*
X183889160Y-57863247D02*
X183851065Y-57939438D01*
X183851065Y-57939438D02*
X183851065Y-58129914D01*
X183851065Y-58129914D02*
X183889160Y-58206104D01*
X183889160Y-58206104D02*
X183927255Y-58244200D01*
X183927255Y-58244200D02*
X184003446Y-58282295D01*
X184003446Y-58282295D02*
X184232017Y-58282295D01*
X184232017Y-58282295D02*
X184308208Y-58244200D01*
X184308208Y-58244200D02*
X184346303Y-58206104D01*
X184612969Y-65902295D02*
X184879636Y-65521342D01*
X185070112Y-65902295D02*
X185070112Y-65102295D01*
X185070112Y-65102295D02*
X184765350Y-65102295D01*
X184765350Y-65102295D02*
X184689160Y-65140390D01*
X184689160Y-65140390D02*
X184651065Y-65178485D01*
X184651065Y-65178485D02*
X184612969Y-65254676D01*
X184612969Y-65254676D02*
X184612969Y-65368961D01*
X184612969Y-65368961D02*
X184651065Y-65445152D01*
X184651065Y-65445152D02*
X184689160Y-65483247D01*
X184689160Y-65483247D02*
X184765350Y-65521342D01*
X184765350Y-65521342D02*
X185070112Y-65521342D01*
X184308208Y-65178485D02*
X184270112Y-65140390D01*
X184270112Y-65140390D02*
X184193922Y-65102295D01*
X184193922Y-65102295D02*
X184003446Y-65102295D01*
X184003446Y-65102295D02*
X183927255Y-65140390D01*
X183927255Y-65140390D02*
X183889160Y-65178485D01*
X183889160Y-65178485D02*
X183851065Y-65254676D01*
X183851065Y-65254676D02*
X183851065Y-65330866D01*
X183851065Y-65330866D02*
X183889160Y-65445152D01*
X183889160Y-65445152D02*
X184346303Y-65902295D01*
X184346303Y-65902295D02*
X183851065Y-65902295D01*
X194547619Y-35509819D02*
X195023809Y-35509819D01*
X195023809Y-35509819D02*
X195023809Y-34509819D01*
X194214285Y-35414580D02*
X194166666Y-35462200D01*
X194166666Y-35462200D02*
X194214285Y-35509819D01*
X194214285Y-35509819D02*
X194261904Y-35462200D01*
X194261904Y-35462200D02*
X194214285Y-35414580D01*
X194214285Y-35414580D02*
X194214285Y-35509819D01*
X193023809Y-35462200D02*
X192880952Y-35509819D01*
X192880952Y-35509819D02*
X192642857Y-35509819D01*
X192642857Y-35509819D02*
X192547619Y-35462200D01*
X192547619Y-35462200D02*
X192500000Y-35414580D01*
X192500000Y-35414580D02*
X192452381Y-35319342D01*
X192452381Y-35319342D02*
X192452381Y-35224104D01*
X192452381Y-35224104D02*
X192500000Y-35128866D01*
X192500000Y-35128866D02*
X192547619Y-35081247D01*
X192547619Y-35081247D02*
X192642857Y-35033628D01*
X192642857Y-35033628D02*
X192833333Y-34986009D01*
X192833333Y-34986009D02*
X192928571Y-34938390D01*
X192928571Y-34938390D02*
X192976190Y-34890771D01*
X192976190Y-34890771D02*
X193023809Y-34795533D01*
X193023809Y-34795533D02*
X193023809Y-34700295D01*
X193023809Y-34700295D02*
X192976190Y-34605057D01*
X192976190Y-34605057D02*
X192928571Y-34557438D01*
X192928571Y-34557438D02*
X192833333Y-34509819D01*
X192833333Y-34509819D02*
X192595238Y-34509819D01*
X192595238Y-34509819D02*
X192452381Y-34557438D01*
X192023809Y-35509819D02*
X192023809Y-34843152D01*
X192023809Y-34509819D02*
X192071428Y-34557438D01*
X192071428Y-34557438D02*
X192023809Y-34605057D01*
X192023809Y-34605057D02*
X191976190Y-34557438D01*
X191976190Y-34557438D02*
X192023809Y-34509819D01*
X192023809Y-34509819D02*
X192023809Y-34605057D01*
X191119048Y-35509819D02*
X191119048Y-34509819D01*
X191119048Y-35462200D02*
X191214286Y-35509819D01*
X191214286Y-35509819D02*
X191404762Y-35509819D01*
X191404762Y-35509819D02*
X191500000Y-35462200D01*
X191500000Y-35462200D02*
X191547619Y-35414580D01*
X191547619Y-35414580D02*
X191595238Y-35319342D01*
X191595238Y-35319342D02*
X191595238Y-35033628D01*
X191595238Y-35033628D02*
X191547619Y-34938390D01*
X191547619Y-34938390D02*
X191500000Y-34890771D01*
X191500000Y-34890771D02*
X191404762Y-34843152D01*
X191404762Y-34843152D02*
X191214286Y-34843152D01*
X191214286Y-34843152D02*
X191119048Y-34890771D01*
X190261905Y-35462200D02*
X190357143Y-35509819D01*
X190357143Y-35509819D02*
X190547619Y-35509819D01*
X190547619Y-35509819D02*
X190642857Y-35462200D01*
X190642857Y-35462200D02*
X190690476Y-35366961D01*
X190690476Y-35366961D02*
X190690476Y-34986009D01*
X190690476Y-34986009D02*
X190642857Y-34890771D01*
X190642857Y-34890771D02*
X190547619Y-34843152D01*
X190547619Y-34843152D02*
X190357143Y-34843152D01*
X190357143Y-34843152D02*
X190261905Y-34890771D01*
X190261905Y-34890771D02*
X190214286Y-34986009D01*
X190214286Y-34986009D02*
X190214286Y-35081247D01*
X190214286Y-35081247D02*
X190690476Y-35176485D01*
X189023809Y-35128866D02*
X188261905Y-35128866D01*
X186738095Y-34509819D02*
X186738095Y-35224104D01*
X186738095Y-35224104D02*
X186785714Y-35366961D01*
X186785714Y-35366961D02*
X186880952Y-35462200D01*
X186880952Y-35462200D02*
X187023809Y-35509819D01*
X187023809Y-35509819D02*
X187119047Y-35509819D01*
X185833333Y-34843152D02*
X185833333Y-35509819D01*
X186261904Y-34843152D02*
X186261904Y-35366961D01*
X186261904Y-35366961D02*
X186214285Y-35462200D01*
X186214285Y-35462200D02*
X186119047Y-35509819D01*
X186119047Y-35509819D02*
X185976190Y-35509819D01*
X185976190Y-35509819D02*
X185880952Y-35462200D01*
X185880952Y-35462200D02*
X185833333Y-35414580D01*
X185357142Y-35509819D02*
X185357142Y-34843152D01*
X185357142Y-34938390D02*
X185309523Y-34890771D01*
X185309523Y-34890771D02*
X185214285Y-34843152D01*
X185214285Y-34843152D02*
X185071428Y-34843152D01*
X185071428Y-34843152D02*
X184976190Y-34890771D01*
X184976190Y-34890771D02*
X184928571Y-34986009D01*
X184928571Y-34986009D02*
X184928571Y-35509819D01*
X184928571Y-34986009D02*
X184880952Y-34890771D01*
X184880952Y-34890771D02*
X184785714Y-34843152D01*
X184785714Y-34843152D02*
X184642857Y-34843152D01*
X184642857Y-34843152D02*
X184547618Y-34890771D01*
X184547618Y-34890771D02*
X184499999Y-34986009D01*
X184499999Y-34986009D02*
X184499999Y-35509819D01*
X184023809Y-34843152D02*
X184023809Y-35843152D01*
X184023809Y-34890771D02*
X183928571Y-34843152D01*
X183928571Y-34843152D02*
X183738095Y-34843152D01*
X183738095Y-34843152D02*
X183642857Y-34890771D01*
X183642857Y-34890771D02*
X183595238Y-34938390D01*
X183595238Y-34938390D02*
X183547619Y-35033628D01*
X183547619Y-35033628D02*
X183547619Y-35319342D01*
X183547619Y-35319342D02*
X183595238Y-35414580D01*
X183595238Y-35414580D02*
X183642857Y-35462200D01*
X183642857Y-35462200D02*
X183738095Y-35509819D01*
X183738095Y-35509819D02*
X183928571Y-35509819D01*
X183928571Y-35509819D02*
X184023809Y-35462200D01*
X182738095Y-35462200D02*
X182833333Y-35509819D01*
X182833333Y-35509819D02*
X183023809Y-35509819D01*
X183023809Y-35509819D02*
X183119047Y-35462200D01*
X183119047Y-35462200D02*
X183166666Y-35366961D01*
X183166666Y-35366961D02*
X183166666Y-34986009D01*
X183166666Y-34986009D02*
X183119047Y-34890771D01*
X183119047Y-34890771D02*
X183023809Y-34843152D01*
X183023809Y-34843152D02*
X182833333Y-34843152D01*
X182833333Y-34843152D02*
X182738095Y-34890771D01*
X182738095Y-34890771D02*
X182690476Y-34986009D01*
X182690476Y-34986009D02*
X182690476Y-35081247D01*
X182690476Y-35081247D02*
X183166666Y-35176485D01*
X182261904Y-35509819D02*
X182261904Y-34843152D01*
X182261904Y-35033628D02*
X182214285Y-34938390D01*
X182214285Y-34938390D02*
X182166666Y-34890771D01*
X182166666Y-34890771D02*
X182071428Y-34843152D01*
X182071428Y-34843152D02*
X181976190Y-34843152D01*
X180880951Y-35509819D02*
X180880951Y-34509819D01*
X180880951Y-34986009D02*
X180309523Y-34986009D01*
X180309523Y-35509819D02*
X180309523Y-34509819D01*
X179452380Y-35462200D02*
X179547618Y-35509819D01*
X179547618Y-35509819D02*
X179738094Y-35509819D01*
X179738094Y-35509819D02*
X179833332Y-35462200D01*
X179833332Y-35462200D02*
X179880951Y-35366961D01*
X179880951Y-35366961D02*
X179880951Y-34986009D01*
X179880951Y-34986009D02*
X179833332Y-34890771D01*
X179833332Y-34890771D02*
X179738094Y-34843152D01*
X179738094Y-34843152D02*
X179547618Y-34843152D01*
X179547618Y-34843152D02*
X179452380Y-34890771D01*
X179452380Y-34890771D02*
X179404761Y-34986009D01*
X179404761Y-34986009D02*
X179404761Y-35081247D01*
X179404761Y-35081247D02*
X179880951Y-35176485D01*
X178976189Y-35509819D02*
X178976189Y-34843152D01*
X178976189Y-35033628D02*
X178928570Y-34938390D01*
X178928570Y-34938390D02*
X178880951Y-34890771D01*
X178880951Y-34890771D02*
X178785713Y-34843152D01*
X178785713Y-34843152D02*
X178690475Y-34843152D01*
X177976189Y-35462200D02*
X178071427Y-35509819D01*
X178071427Y-35509819D02*
X178261903Y-35509819D01*
X178261903Y-35509819D02*
X178357141Y-35462200D01*
X178357141Y-35462200D02*
X178404760Y-35366961D01*
X178404760Y-35366961D02*
X178404760Y-34986009D01*
X178404760Y-34986009D02*
X178357141Y-34890771D01*
X178357141Y-34890771D02*
X178261903Y-34843152D01*
X178261903Y-34843152D02*
X178071427Y-34843152D01*
X178071427Y-34843152D02*
X177976189Y-34890771D01*
X177976189Y-34890771D02*
X177928570Y-34986009D01*
X177928570Y-34986009D02*
X177928570Y-35081247D01*
X177928570Y-35081247D02*
X178404760Y-35176485D01*
X188653696Y-53126104D02*
X188691792Y-53164200D01*
X188691792Y-53164200D02*
X188806077Y-53202295D01*
X188806077Y-53202295D02*
X188882268Y-53202295D01*
X188882268Y-53202295D02*
X188996554Y-53164200D01*
X188996554Y-53164200D02*
X189072744Y-53088009D01*
X189072744Y-53088009D02*
X189110839Y-53011819D01*
X189110839Y-53011819D02*
X189148935Y-52859438D01*
X189148935Y-52859438D02*
X189148935Y-52745152D01*
X189148935Y-52745152D02*
X189110839Y-52592771D01*
X189110839Y-52592771D02*
X189072744Y-52516580D01*
X189072744Y-52516580D02*
X188996554Y-52440390D01*
X188996554Y-52440390D02*
X188882268Y-52402295D01*
X188882268Y-52402295D02*
X188806077Y-52402295D01*
X188806077Y-52402295D02*
X188691792Y-52440390D01*
X188691792Y-52440390D02*
X188653696Y-52478485D01*
X188387030Y-52402295D02*
X187891792Y-52402295D01*
X187891792Y-52402295D02*
X188158458Y-52707057D01*
X188158458Y-52707057D02*
X188044173Y-52707057D01*
X188044173Y-52707057D02*
X187967982Y-52745152D01*
X187967982Y-52745152D02*
X187929887Y-52783247D01*
X187929887Y-52783247D02*
X187891792Y-52859438D01*
X187891792Y-52859438D02*
X187891792Y-53049914D01*
X187891792Y-53049914D02*
X187929887Y-53126104D01*
X187929887Y-53126104D02*
X187967982Y-53164200D01*
X187967982Y-53164200D02*
X188044173Y-53202295D01*
X188044173Y-53202295D02*
X188272744Y-53202295D01*
X188272744Y-53202295D02*
X188348935Y-53164200D01*
X188348935Y-53164200D02*
X188387030Y-53126104D01*
X185908207Y-53202295D02*
X185908207Y-52402295D01*
X185908207Y-52402295D02*
X185451064Y-53202295D01*
X185451064Y-53202295D02*
X185451064Y-52402295D01*
X184612969Y-53126104D02*
X184651065Y-53164200D01*
X184651065Y-53164200D02*
X184765350Y-53202295D01*
X184765350Y-53202295D02*
X184841541Y-53202295D01*
X184841541Y-53202295D02*
X184955827Y-53164200D01*
X184955827Y-53164200D02*
X185032017Y-53088009D01*
X185032017Y-53088009D02*
X185070112Y-53011819D01*
X185070112Y-53011819D02*
X185108208Y-52859438D01*
X185108208Y-52859438D02*
X185108208Y-52745152D01*
X185108208Y-52745152D02*
X185070112Y-52592771D01*
X185070112Y-52592771D02*
X185032017Y-52516580D01*
X185032017Y-52516580D02*
X184955827Y-52440390D01*
X184955827Y-52440390D02*
X184841541Y-52402295D01*
X184841541Y-52402295D02*
X184765350Y-52402295D01*
X184765350Y-52402295D02*
X184651065Y-52440390D01*
X184651065Y-52440390D02*
X184612969Y-52478485D01*
X183851065Y-53202295D02*
X184308208Y-53202295D01*
X184079636Y-53202295D02*
X184079636Y-52402295D01*
X184079636Y-52402295D02*
X184155827Y-52516580D01*
X184155827Y-52516580D02*
X184232017Y-52592771D01*
X184232017Y-52592771D02*
X184308208Y-52630866D01*
X188653696Y-60746104D02*
X188691792Y-60784200D01*
X188691792Y-60784200D02*
X188806077Y-60822295D01*
X188806077Y-60822295D02*
X188882268Y-60822295D01*
X188882268Y-60822295D02*
X188996554Y-60784200D01*
X188996554Y-60784200D02*
X189072744Y-60708009D01*
X189072744Y-60708009D02*
X189110839Y-60631819D01*
X189110839Y-60631819D02*
X189148935Y-60479438D01*
X189148935Y-60479438D02*
X189148935Y-60365152D01*
X189148935Y-60365152D02*
X189110839Y-60212771D01*
X189110839Y-60212771D02*
X189072744Y-60136580D01*
X189072744Y-60136580D02*
X188996554Y-60060390D01*
X188996554Y-60060390D02*
X188882268Y-60022295D01*
X188882268Y-60022295D02*
X188806077Y-60022295D01*
X188806077Y-60022295D02*
X188691792Y-60060390D01*
X188691792Y-60060390D02*
X188653696Y-60098485D01*
X187967982Y-60022295D02*
X188120363Y-60022295D01*
X188120363Y-60022295D02*
X188196554Y-60060390D01*
X188196554Y-60060390D02*
X188234649Y-60098485D01*
X188234649Y-60098485D02*
X188310839Y-60212771D01*
X188310839Y-60212771D02*
X188348935Y-60365152D01*
X188348935Y-60365152D02*
X188348935Y-60669914D01*
X188348935Y-60669914D02*
X188310839Y-60746104D01*
X188310839Y-60746104D02*
X188272744Y-60784200D01*
X188272744Y-60784200D02*
X188196554Y-60822295D01*
X188196554Y-60822295D02*
X188044173Y-60822295D01*
X188044173Y-60822295D02*
X187967982Y-60784200D01*
X187967982Y-60784200D02*
X187929887Y-60746104D01*
X187929887Y-60746104D02*
X187891792Y-60669914D01*
X187891792Y-60669914D02*
X187891792Y-60479438D01*
X187891792Y-60479438D02*
X187929887Y-60403247D01*
X187929887Y-60403247D02*
X187967982Y-60365152D01*
X187967982Y-60365152D02*
X188044173Y-60327057D01*
X188044173Y-60327057D02*
X188196554Y-60327057D01*
X188196554Y-60327057D02*
X188272744Y-60365152D01*
X188272744Y-60365152D02*
X188310839Y-60403247D01*
X188310839Y-60403247D02*
X188348935Y-60479438D01*
X188691792Y-39740390D02*
X188767982Y-39702295D01*
X188767982Y-39702295D02*
X188882268Y-39702295D01*
X188882268Y-39702295D02*
X188996554Y-39740390D01*
X188996554Y-39740390D02*
X189072744Y-39816580D01*
X189072744Y-39816580D02*
X189110839Y-39892771D01*
X189110839Y-39892771D02*
X189148935Y-40045152D01*
X189148935Y-40045152D02*
X189148935Y-40159438D01*
X189148935Y-40159438D02*
X189110839Y-40311819D01*
X189110839Y-40311819D02*
X189072744Y-40388009D01*
X189072744Y-40388009D02*
X188996554Y-40464200D01*
X188996554Y-40464200D02*
X188882268Y-40502295D01*
X188882268Y-40502295D02*
X188806077Y-40502295D01*
X188806077Y-40502295D02*
X188691792Y-40464200D01*
X188691792Y-40464200D02*
X188653696Y-40426104D01*
X188653696Y-40426104D02*
X188653696Y-40159438D01*
X188653696Y-40159438D02*
X188806077Y-40159438D01*
X188310839Y-40502295D02*
X188310839Y-39702295D01*
X188310839Y-39702295D02*
X187853696Y-40502295D01*
X187853696Y-40502295D02*
X187853696Y-39702295D01*
X187472744Y-40502295D02*
X187472744Y-39702295D01*
X187472744Y-39702295D02*
X187282268Y-39702295D01*
X187282268Y-39702295D02*
X187167982Y-39740390D01*
X187167982Y-39740390D02*
X187091792Y-39816580D01*
X187091792Y-39816580D02*
X187053697Y-39892771D01*
X187053697Y-39892771D02*
X187015601Y-40045152D01*
X187015601Y-40045152D02*
X187015601Y-40159438D01*
X187015601Y-40159438D02*
X187053697Y-40311819D01*
X187053697Y-40311819D02*
X187091792Y-40388009D01*
X187091792Y-40388009D02*
X187167982Y-40464200D01*
X187167982Y-40464200D02*
X187282268Y-40502295D01*
X187282268Y-40502295D02*
X187472744Y-40502295D01*
X185908208Y-50624200D02*
X185793922Y-50662295D01*
X185793922Y-50662295D02*
X185603446Y-50662295D01*
X185603446Y-50662295D02*
X185527255Y-50624200D01*
X185527255Y-50624200D02*
X185489160Y-50586104D01*
X185489160Y-50586104D02*
X185451065Y-50509914D01*
X185451065Y-50509914D02*
X185451065Y-50433723D01*
X185451065Y-50433723D02*
X185489160Y-50357533D01*
X185489160Y-50357533D02*
X185527255Y-50319438D01*
X185527255Y-50319438D02*
X185603446Y-50281342D01*
X185603446Y-50281342D02*
X185755827Y-50243247D01*
X185755827Y-50243247D02*
X185832017Y-50205152D01*
X185832017Y-50205152D02*
X185870112Y-50167057D01*
X185870112Y-50167057D02*
X185908208Y-50090866D01*
X185908208Y-50090866D02*
X185908208Y-50014676D01*
X185908208Y-50014676D02*
X185870112Y-49938485D01*
X185870112Y-49938485D02*
X185832017Y-49900390D01*
X185832017Y-49900390D02*
X185755827Y-49862295D01*
X185755827Y-49862295D02*
X185565350Y-49862295D01*
X185565350Y-49862295D02*
X185451065Y-49900390D01*
X184651064Y-50586104D02*
X184689160Y-50624200D01*
X184689160Y-50624200D02*
X184803445Y-50662295D01*
X184803445Y-50662295D02*
X184879636Y-50662295D01*
X184879636Y-50662295D02*
X184993922Y-50624200D01*
X184993922Y-50624200D02*
X185070112Y-50548009D01*
X185070112Y-50548009D02*
X185108207Y-50471819D01*
X185108207Y-50471819D02*
X185146303Y-50319438D01*
X185146303Y-50319438D02*
X185146303Y-50205152D01*
X185146303Y-50205152D02*
X185108207Y-50052771D01*
X185108207Y-50052771D02*
X185070112Y-49976580D01*
X185070112Y-49976580D02*
X184993922Y-49900390D01*
X184993922Y-49900390D02*
X184879636Y-49862295D01*
X184879636Y-49862295D02*
X184803445Y-49862295D01*
X184803445Y-49862295D02*
X184689160Y-49900390D01*
X184689160Y-49900390D02*
X184651064Y-49938485D01*
X184308207Y-50662295D02*
X184308207Y-49862295D01*
X183851064Y-50662295D02*
X184193922Y-50205152D01*
X183851064Y-49862295D02*
X184308207Y-50319438D01*
X188653696Y-50586104D02*
X188691792Y-50624200D01*
X188691792Y-50624200D02*
X188806077Y-50662295D01*
X188806077Y-50662295D02*
X188882268Y-50662295D01*
X188882268Y-50662295D02*
X188996554Y-50624200D01*
X188996554Y-50624200D02*
X189072744Y-50548009D01*
X189072744Y-50548009D02*
X189110839Y-50471819D01*
X189110839Y-50471819D02*
X189148935Y-50319438D01*
X189148935Y-50319438D02*
X189148935Y-50205152D01*
X189148935Y-50205152D02*
X189110839Y-50052771D01*
X189110839Y-50052771D02*
X189072744Y-49976580D01*
X189072744Y-49976580D02*
X188996554Y-49900390D01*
X188996554Y-49900390D02*
X188882268Y-49862295D01*
X188882268Y-49862295D02*
X188806077Y-49862295D01*
X188806077Y-49862295D02*
X188691792Y-49900390D01*
X188691792Y-49900390D02*
X188653696Y-49938485D01*
X188348935Y-49938485D02*
X188310839Y-49900390D01*
X188310839Y-49900390D02*
X188234649Y-49862295D01*
X188234649Y-49862295D02*
X188044173Y-49862295D01*
X188044173Y-49862295D02*
X187967982Y-49900390D01*
X187967982Y-49900390D02*
X187929887Y-49938485D01*
X187929887Y-49938485D02*
X187891792Y-50014676D01*
X187891792Y-50014676D02*
X187891792Y-50090866D01*
X187891792Y-50090866D02*
X187929887Y-50205152D01*
X187929887Y-50205152D02*
X188387030Y-50662295D01*
X188387030Y-50662295D02*
X187891792Y-50662295D01*
X188653696Y-43042295D02*
X188920363Y-42661342D01*
X189110839Y-43042295D02*
X189110839Y-42242295D01*
X189110839Y-42242295D02*
X188806077Y-42242295D01*
X188806077Y-42242295D02*
X188729887Y-42280390D01*
X188729887Y-42280390D02*
X188691792Y-42318485D01*
X188691792Y-42318485D02*
X188653696Y-42394676D01*
X188653696Y-42394676D02*
X188653696Y-42508961D01*
X188653696Y-42508961D02*
X188691792Y-42585152D01*
X188691792Y-42585152D02*
X188729887Y-42623247D01*
X188729887Y-42623247D02*
X188806077Y-42661342D01*
X188806077Y-42661342D02*
X189110839Y-42661342D01*
X188348935Y-43004200D02*
X188234649Y-43042295D01*
X188234649Y-43042295D02*
X188044173Y-43042295D01*
X188044173Y-43042295D02*
X187967982Y-43004200D01*
X187967982Y-43004200D02*
X187929887Y-42966104D01*
X187929887Y-42966104D02*
X187891792Y-42889914D01*
X187891792Y-42889914D02*
X187891792Y-42813723D01*
X187891792Y-42813723D02*
X187929887Y-42737533D01*
X187929887Y-42737533D02*
X187967982Y-42699438D01*
X187967982Y-42699438D02*
X188044173Y-42661342D01*
X188044173Y-42661342D02*
X188196554Y-42623247D01*
X188196554Y-42623247D02*
X188272744Y-42585152D01*
X188272744Y-42585152D02*
X188310839Y-42547057D01*
X188310839Y-42547057D02*
X188348935Y-42470866D01*
X188348935Y-42470866D02*
X188348935Y-42394676D01*
X188348935Y-42394676D02*
X188310839Y-42318485D01*
X188310839Y-42318485D02*
X188272744Y-42280390D01*
X188272744Y-42280390D02*
X188196554Y-42242295D01*
X188196554Y-42242295D02*
X188006077Y-42242295D01*
X188006077Y-42242295D02*
X187891792Y-42280390D01*
X187663220Y-42242295D02*
X187206077Y-42242295D01*
X187434649Y-43042295D02*
X187434649Y-42242295D01*
X185451064Y-40502295D02*
X185717731Y-40121342D01*
X185908207Y-40502295D02*
X185908207Y-39702295D01*
X185908207Y-39702295D02*
X185603445Y-39702295D01*
X185603445Y-39702295D02*
X185527255Y-39740390D01*
X185527255Y-39740390D02*
X185489160Y-39778485D01*
X185489160Y-39778485D02*
X185451064Y-39854676D01*
X185451064Y-39854676D02*
X185451064Y-39968961D01*
X185451064Y-39968961D02*
X185489160Y-40045152D01*
X185489160Y-40045152D02*
X185527255Y-40083247D01*
X185527255Y-40083247D02*
X185603445Y-40121342D01*
X185603445Y-40121342D02*
X185908207Y-40121342D01*
X184689160Y-39740390D02*
X184765350Y-39702295D01*
X184765350Y-39702295D02*
X184879636Y-39702295D01*
X184879636Y-39702295D02*
X184993922Y-39740390D01*
X184993922Y-39740390D02*
X185070112Y-39816580D01*
X185070112Y-39816580D02*
X185108207Y-39892771D01*
X185108207Y-39892771D02*
X185146303Y-40045152D01*
X185146303Y-40045152D02*
X185146303Y-40159438D01*
X185146303Y-40159438D02*
X185108207Y-40311819D01*
X185108207Y-40311819D02*
X185070112Y-40388009D01*
X185070112Y-40388009D02*
X184993922Y-40464200D01*
X184993922Y-40464200D02*
X184879636Y-40502295D01*
X184879636Y-40502295D02*
X184803445Y-40502295D01*
X184803445Y-40502295D02*
X184689160Y-40464200D01*
X184689160Y-40464200D02*
X184651064Y-40426104D01*
X184651064Y-40426104D02*
X184651064Y-40159438D01*
X184651064Y-40159438D02*
X184803445Y-40159438D01*
X184041541Y-40083247D02*
X183927255Y-40121342D01*
X183927255Y-40121342D02*
X183889160Y-40159438D01*
X183889160Y-40159438D02*
X183851064Y-40235628D01*
X183851064Y-40235628D02*
X183851064Y-40349914D01*
X183851064Y-40349914D02*
X183889160Y-40426104D01*
X183889160Y-40426104D02*
X183927255Y-40464200D01*
X183927255Y-40464200D02*
X184003445Y-40502295D01*
X184003445Y-40502295D02*
X184308207Y-40502295D01*
X184308207Y-40502295D02*
X184308207Y-39702295D01*
X184308207Y-39702295D02*
X184041541Y-39702295D01*
X184041541Y-39702295D02*
X183965350Y-39740390D01*
X183965350Y-39740390D02*
X183927255Y-39778485D01*
X183927255Y-39778485D02*
X183889160Y-39854676D01*
X183889160Y-39854676D02*
X183889160Y-39930866D01*
X183889160Y-39930866D02*
X183927255Y-40007057D01*
X183927255Y-40007057D02*
X183965350Y-40045152D01*
X183965350Y-40045152D02*
X184041541Y-40083247D01*
X184041541Y-40083247D02*
X184308207Y-40083247D01*
X185527255Y-42280390D02*
X185603445Y-42242295D01*
X185603445Y-42242295D02*
X185717731Y-42242295D01*
X185717731Y-42242295D02*
X185832017Y-42280390D01*
X185832017Y-42280390D02*
X185908207Y-42356580D01*
X185908207Y-42356580D02*
X185946302Y-42432771D01*
X185946302Y-42432771D02*
X185984398Y-42585152D01*
X185984398Y-42585152D02*
X185984398Y-42699438D01*
X185984398Y-42699438D02*
X185946302Y-42851819D01*
X185946302Y-42851819D02*
X185908207Y-42928009D01*
X185908207Y-42928009D02*
X185832017Y-43004200D01*
X185832017Y-43004200D02*
X185717731Y-43042295D01*
X185717731Y-43042295D02*
X185641540Y-43042295D01*
X185641540Y-43042295D02*
X185527255Y-43004200D01*
X185527255Y-43004200D02*
X185489159Y-42966104D01*
X185489159Y-42966104D02*
X185489159Y-42699438D01*
X185489159Y-42699438D02*
X185641540Y-42699438D01*
X185146302Y-43042295D02*
X185146302Y-42242295D01*
X185146302Y-42242295D02*
X184689159Y-43042295D01*
X184689159Y-43042295D02*
X184689159Y-42242295D01*
X184308207Y-43042295D02*
X184308207Y-42242295D01*
X184308207Y-42242295D02*
X184117731Y-42242295D01*
X184117731Y-42242295D02*
X184003445Y-42280390D01*
X184003445Y-42280390D02*
X183927255Y-42356580D01*
X183927255Y-42356580D02*
X183889160Y-42432771D01*
X183889160Y-42432771D02*
X183851064Y-42585152D01*
X183851064Y-42585152D02*
X183851064Y-42699438D01*
X183851064Y-42699438D02*
X183889160Y-42851819D01*
X183889160Y-42851819D02*
X183927255Y-42928009D01*
X183927255Y-42928009D02*
X184003445Y-43004200D01*
X184003445Y-43004200D02*
X184117731Y-43042295D01*
X184117731Y-43042295D02*
X184308207Y-43042295D01*
X188653696Y-48046104D02*
X188691792Y-48084200D01*
X188691792Y-48084200D02*
X188806077Y-48122295D01*
X188806077Y-48122295D02*
X188882268Y-48122295D01*
X188882268Y-48122295D02*
X188996554Y-48084200D01*
X188996554Y-48084200D02*
X189072744Y-48008009D01*
X189072744Y-48008009D02*
X189110839Y-47931819D01*
X189110839Y-47931819D02*
X189148935Y-47779438D01*
X189148935Y-47779438D02*
X189148935Y-47665152D01*
X189148935Y-47665152D02*
X189110839Y-47512771D01*
X189110839Y-47512771D02*
X189072744Y-47436580D01*
X189072744Y-47436580D02*
X188996554Y-47360390D01*
X188996554Y-47360390D02*
X188882268Y-47322295D01*
X188882268Y-47322295D02*
X188806077Y-47322295D01*
X188806077Y-47322295D02*
X188691792Y-47360390D01*
X188691792Y-47360390D02*
X188653696Y-47398485D01*
X187891792Y-48122295D02*
X188348935Y-48122295D01*
X188120363Y-48122295D02*
X188120363Y-47322295D01*
X188120363Y-47322295D02*
X188196554Y-47436580D01*
X188196554Y-47436580D02*
X188272744Y-47512771D01*
X188272744Y-47512771D02*
X188348935Y-47550866D01*
X185527255Y-44820390D02*
X185603445Y-44782295D01*
X185603445Y-44782295D02*
X185717731Y-44782295D01*
X185717731Y-44782295D02*
X185832017Y-44820390D01*
X185832017Y-44820390D02*
X185908207Y-44896580D01*
X185908207Y-44896580D02*
X185946302Y-44972771D01*
X185946302Y-44972771D02*
X185984398Y-45125152D01*
X185984398Y-45125152D02*
X185984398Y-45239438D01*
X185984398Y-45239438D02*
X185946302Y-45391819D01*
X185946302Y-45391819D02*
X185908207Y-45468009D01*
X185908207Y-45468009D02*
X185832017Y-45544200D01*
X185832017Y-45544200D02*
X185717731Y-45582295D01*
X185717731Y-45582295D02*
X185641540Y-45582295D01*
X185641540Y-45582295D02*
X185527255Y-45544200D01*
X185527255Y-45544200D02*
X185489159Y-45506104D01*
X185489159Y-45506104D02*
X185489159Y-45239438D01*
X185489159Y-45239438D02*
X185641540Y-45239438D01*
X185146302Y-45582295D02*
X185146302Y-44782295D01*
X185146302Y-44782295D02*
X184689159Y-45582295D01*
X184689159Y-45582295D02*
X184689159Y-44782295D01*
X184308207Y-45582295D02*
X184308207Y-44782295D01*
X184308207Y-44782295D02*
X184117731Y-44782295D01*
X184117731Y-44782295D02*
X184003445Y-44820390D01*
X184003445Y-44820390D02*
X183927255Y-44896580D01*
X183927255Y-44896580D02*
X183889160Y-44972771D01*
X183889160Y-44972771D02*
X183851064Y-45125152D01*
X183851064Y-45125152D02*
X183851064Y-45239438D01*
X183851064Y-45239438D02*
X183889160Y-45391819D01*
X183889160Y-45391819D02*
X183927255Y-45468009D01*
X183927255Y-45468009D02*
X184003445Y-45544200D01*
X184003445Y-45544200D02*
X184117731Y-45582295D01*
X184117731Y-45582295D02*
X184308207Y-45582295D01*
X188653696Y-37962295D02*
X188920363Y-37581342D01*
X189110839Y-37962295D02*
X189110839Y-37162295D01*
X189110839Y-37162295D02*
X188806077Y-37162295D01*
X188806077Y-37162295D02*
X188729887Y-37200390D01*
X188729887Y-37200390D02*
X188691792Y-37238485D01*
X188691792Y-37238485D02*
X188653696Y-37314676D01*
X188653696Y-37314676D02*
X188653696Y-37428961D01*
X188653696Y-37428961D02*
X188691792Y-37505152D01*
X188691792Y-37505152D02*
X188729887Y-37543247D01*
X188729887Y-37543247D02*
X188806077Y-37581342D01*
X188806077Y-37581342D02*
X189110839Y-37581342D01*
X188348935Y-37733723D02*
X187967982Y-37733723D01*
X188425125Y-37962295D02*
X188158458Y-37162295D01*
X188158458Y-37162295D02*
X187891792Y-37962295D01*
X187701316Y-37162295D02*
X187510840Y-37962295D01*
X187510840Y-37962295D02*
X187358459Y-37390866D01*
X187358459Y-37390866D02*
X187206078Y-37962295D01*
X187206078Y-37962295D02*
X187015602Y-37162295D01*
X189225125Y-62562295D02*
X188958458Y-63362295D01*
X188958458Y-63362295D02*
X188691792Y-62562295D01*
X187967982Y-63362295D02*
X188234649Y-62981342D01*
X188425125Y-63362295D02*
X188425125Y-62562295D01*
X188425125Y-62562295D02*
X188120363Y-62562295D01*
X188120363Y-62562295D02*
X188044173Y-62600390D01*
X188044173Y-62600390D02*
X188006078Y-62638485D01*
X188006078Y-62638485D02*
X187967982Y-62714676D01*
X187967982Y-62714676D02*
X187967982Y-62828961D01*
X187967982Y-62828961D02*
X188006078Y-62905152D01*
X188006078Y-62905152D02*
X188044173Y-62943247D01*
X188044173Y-62943247D02*
X188120363Y-62981342D01*
X188120363Y-62981342D02*
X188425125Y-62981342D01*
X187206078Y-62600390D02*
X187282268Y-62562295D01*
X187282268Y-62562295D02*
X187396554Y-62562295D01*
X187396554Y-62562295D02*
X187510840Y-62600390D01*
X187510840Y-62600390D02*
X187587030Y-62676580D01*
X187587030Y-62676580D02*
X187625125Y-62752771D01*
X187625125Y-62752771D02*
X187663221Y-62905152D01*
X187663221Y-62905152D02*
X187663221Y-63019438D01*
X187663221Y-63019438D02*
X187625125Y-63171819D01*
X187625125Y-63171819D02*
X187587030Y-63248009D01*
X187587030Y-63248009D02*
X187510840Y-63324200D01*
X187510840Y-63324200D02*
X187396554Y-63362295D01*
X187396554Y-63362295D02*
X187320363Y-63362295D01*
X187320363Y-63362295D02*
X187206078Y-63324200D01*
X187206078Y-63324200D02*
X187167982Y-63286104D01*
X187167982Y-63286104D02*
X187167982Y-63019438D01*
X187167982Y-63019438D02*
X187320363Y-63019438D01*
X189225125Y-44782295D02*
X188958458Y-45582295D01*
X188958458Y-45582295D02*
X188691792Y-44782295D01*
X187967982Y-45506104D02*
X188006078Y-45544200D01*
X188006078Y-45544200D02*
X188120363Y-45582295D01*
X188120363Y-45582295D02*
X188196554Y-45582295D01*
X188196554Y-45582295D02*
X188310840Y-45544200D01*
X188310840Y-45544200D02*
X188387030Y-45468009D01*
X188387030Y-45468009D02*
X188425125Y-45391819D01*
X188425125Y-45391819D02*
X188463221Y-45239438D01*
X188463221Y-45239438D02*
X188463221Y-45125152D01*
X188463221Y-45125152D02*
X188425125Y-44972771D01*
X188425125Y-44972771D02*
X188387030Y-44896580D01*
X188387030Y-44896580D02*
X188310840Y-44820390D01*
X188310840Y-44820390D02*
X188196554Y-44782295D01*
X188196554Y-44782295D02*
X188120363Y-44782295D01*
X188120363Y-44782295D02*
X188006078Y-44820390D01*
X188006078Y-44820390D02*
X187967982Y-44858485D01*
X187167982Y-45506104D02*
X187206078Y-45544200D01*
X187206078Y-45544200D02*
X187320363Y-45582295D01*
X187320363Y-45582295D02*
X187396554Y-45582295D01*
X187396554Y-45582295D02*
X187510840Y-45544200D01*
X187510840Y-45544200D02*
X187587030Y-45468009D01*
X187587030Y-45468009D02*
X187625125Y-45391819D01*
X187625125Y-45391819D02*
X187663221Y-45239438D01*
X187663221Y-45239438D02*
X187663221Y-45125152D01*
X187663221Y-45125152D02*
X187625125Y-44972771D01*
X187625125Y-44972771D02*
X187587030Y-44896580D01*
X187587030Y-44896580D02*
X187510840Y-44820390D01*
X187510840Y-44820390D02*
X187396554Y-44782295D01*
X187396554Y-44782295D02*
X187320363Y-44782295D01*
X187320363Y-44782295D02*
X187206078Y-44820390D01*
X187206078Y-44820390D02*
X187167982Y-44858485D01*
X184612969Y-63362295D02*
X184879636Y-62981342D01*
X185070112Y-63362295D02*
X185070112Y-62562295D01*
X185070112Y-62562295D02*
X184765350Y-62562295D01*
X184765350Y-62562295D02*
X184689160Y-62600390D01*
X184689160Y-62600390D02*
X184651065Y-62638485D01*
X184651065Y-62638485D02*
X184612969Y-62714676D01*
X184612969Y-62714676D02*
X184612969Y-62828961D01*
X184612969Y-62828961D02*
X184651065Y-62905152D01*
X184651065Y-62905152D02*
X184689160Y-62943247D01*
X184689160Y-62943247D02*
X184765350Y-62981342D01*
X184765350Y-62981342D02*
X185070112Y-62981342D01*
X183851065Y-63362295D02*
X184308208Y-63362295D01*
X184079636Y-63362295D02*
X184079636Y-62562295D01*
X184079636Y-62562295D02*
X184155827Y-62676580D01*
X184155827Y-62676580D02*
X184232017Y-62752771D01*
X184232017Y-62752771D02*
X184308208Y-62790866D01*
X185908207Y-60822295D02*
X185908207Y-60022295D01*
X185908207Y-60022295D02*
X185451064Y-60822295D01*
X185451064Y-60822295D02*
X185451064Y-60022295D01*
X184612969Y-60746104D02*
X184651065Y-60784200D01*
X184651065Y-60784200D02*
X184765350Y-60822295D01*
X184765350Y-60822295D02*
X184841541Y-60822295D01*
X184841541Y-60822295D02*
X184955827Y-60784200D01*
X184955827Y-60784200D02*
X185032017Y-60708009D01*
X185032017Y-60708009D02*
X185070112Y-60631819D01*
X185070112Y-60631819D02*
X185108208Y-60479438D01*
X185108208Y-60479438D02*
X185108208Y-60365152D01*
X185108208Y-60365152D02*
X185070112Y-60212771D01*
X185070112Y-60212771D02*
X185032017Y-60136580D01*
X185032017Y-60136580D02*
X184955827Y-60060390D01*
X184955827Y-60060390D02*
X184841541Y-60022295D01*
X184841541Y-60022295D02*
X184765350Y-60022295D01*
X184765350Y-60022295D02*
X184651065Y-60060390D01*
X184651065Y-60060390D02*
X184612969Y-60098485D01*
X183927255Y-60288961D02*
X183927255Y-60822295D01*
X184117731Y-59984200D02*
X184308208Y-60555628D01*
X184308208Y-60555628D02*
X183812969Y-60555628D01*
X186403445Y-48122295D02*
X186403445Y-47322295D01*
X186403445Y-47322295D02*
X186136779Y-47893723D01*
X186136779Y-47893723D02*
X185870112Y-47322295D01*
X185870112Y-47322295D02*
X185870112Y-48122295D01*
X185336778Y-47322295D02*
X185184397Y-47322295D01*
X185184397Y-47322295D02*
X185108207Y-47360390D01*
X185108207Y-47360390D02*
X185032016Y-47436580D01*
X185032016Y-47436580D02*
X184993921Y-47588961D01*
X184993921Y-47588961D02*
X184993921Y-47855628D01*
X184993921Y-47855628D02*
X185032016Y-48008009D01*
X185032016Y-48008009D02*
X185108207Y-48084200D01*
X185108207Y-48084200D02*
X185184397Y-48122295D01*
X185184397Y-48122295D02*
X185336778Y-48122295D01*
X185336778Y-48122295D02*
X185412969Y-48084200D01*
X185412969Y-48084200D02*
X185489159Y-48008009D01*
X185489159Y-48008009D02*
X185527255Y-47855628D01*
X185527255Y-47855628D02*
X185527255Y-47588961D01*
X185527255Y-47588961D02*
X185489159Y-47436580D01*
X185489159Y-47436580D02*
X185412969Y-47360390D01*
X185412969Y-47360390D02*
X185336778Y-47322295D01*
X184689160Y-48084200D02*
X184574874Y-48122295D01*
X184574874Y-48122295D02*
X184384398Y-48122295D01*
X184384398Y-48122295D02*
X184308207Y-48084200D01*
X184308207Y-48084200D02*
X184270112Y-48046104D01*
X184270112Y-48046104D02*
X184232017Y-47969914D01*
X184232017Y-47969914D02*
X184232017Y-47893723D01*
X184232017Y-47893723D02*
X184270112Y-47817533D01*
X184270112Y-47817533D02*
X184308207Y-47779438D01*
X184308207Y-47779438D02*
X184384398Y-47741342D01*
X184384398Y-47741342D02*
X184536779Y-47703247D01*
X184536779Y-47703247D02*
X184612969Y-47665152D01*
X184612969Y-47665152D02*
X184651064Y-47627057D01*
X184651064Y-47627057D02*
X184689160Y-47550866D01*
X184689160Y-47550866D02*
X184689160Y-47474676D01*
X184689160Y-47474676D02*
X184651064Y-47398485D01*
X184651064Y-47398485D02*
X184612969Y-47360390D01*
X184612969Y-47360390D02*
X184536779Y-47322295D01*
X184536779Y-47322295D02*
X184346302Y-47322295D01*
X184346302Y-47322295D02*
X184232017Y-47360390D01*
X183889159Y-48122295D02*
X183889159Y-47322295D01*
X185908207Y-55742295D02*
X185908207Y-54942295D01*
X185908207Y-54942295D02*
X185451064Y-55742295D01*
X185451064Y-55742295D02*
X185451064Y-54942295D01*
X184612969Y-55666104D02*
X184651065Y-55704200D01*
X184651065Y-55704200D02*
X184765350Y-55742295D01*
X184765350Y-55742295D02*
X184841541Y-55742295D01*
X184841541Y-55742295D02*
X184955827Y-55704200D01*
X184955827Y-55704200D02*
X185032017Y-55628009D01*
X185032017Y-55628009D02*
X185070112Y-55551819D01*
X185070112Y-55551819D02*
X185108208Y-55399438D01*
X185108208Y-55399438D02*
X185108208Y-55285152D01*
X185108208Y-55285152D02*
X185070112Y-55132771D01*
X185070112Y-55132771D02*
X185032017Y-55056580D01*
X185032017Y-55056580D02*
X184955827Y-54980390D01*
X184955827Y-54980390D02*
X184841541Y-54942295D01*
X184841541Y-54942295D02*
X184765350Y-54942295D01*
X184765350Y-54942295D02*
X184651065Y-54980390D01*
X184651065Y-54980390D02*
X184612969Y-55018485D01*
X184308208Y-55018485D02*
X184270112Y-54980390D01*
X184270112Y-54980390D02*
X184193922Y-54942295D01*
X184193922Y-54942295D02*
X184003446Y-54942295D01*
X184003446Y-54942295D02*
X183927255Y-54980390D01*
X183927255Y-54980390D02*
X183889160Y-55018485D01*
X183889160Y-55018485D02*
X183851065Y-55094676D01*
X183851065Y-55094676D02*
X183851065Y-55170866D01*
X183851065Y-55170866D02*
X183889160Y-55285152D01*
X183889160Y-55285152D02*
X184346303Y-55742295D01*
X184346303Y-55742295D02*
X183851065Y-55742295D01*
X79454819Y-27047619D02*
X79454819Y-27238095D01*
X79454819Y-27238095D02*
X79502438Y-27333333D01*
X79502438Y-27333333D02*
X79597676Y-27428571D01*
X79597676Y-27428571D02*
X79788152Y-27476190D01*
X79788152Y-27476190D02*
X80121485Y-27476190D01*
X80121485Y-27476190D02*
X80311961Y-27428571D01*
X80311961Y-27428571D02*
X80407200Y-27333333D01*
X80407200Y-27333333D02*
X80454819Y-27238095D01*
X80454819Y-27238095D02*
X80454819Y-27047619D01*
X80454819Y-27047619D02*
X80407200Y-26952381D01*
X80407200Y-26952381D02*
X80311961Y-26857143D01*
X80311961Y-26857143D02*
X80121485Y-26809524D01*
X80121485Y-26809524D02*
X79788152Y-26809524D01*
X79788152Y-26809524D02*
X79597676Y-26857143D01*
X79597676Y-26857143D02*
X79502438Y-26952381D01*
X79502438Y-26952381D02*
X79454819Y-27047619D01*
X79931009Y-28238095D02*
X79931009Y-27904762D01*
X80454819Y-27904762D02*
X79454819Y-27904762D01*
X79454819Y-27904762D02*
X79454819Y-28380952D01*
X79931009Y-29095238D02*
X79931009Y-28761905D01*
X80454819Y-28761905D02*
X79454819Y-28761905D01*
X79454819Y-28761905D02*
X79454819Y-29238095D01*
X69454819Y-27380952D02*
X69454819Y-27571428D01*
X69454819Y-27571428D02*
X69502438Y-27666666D01*
X69502438Y-27666666D02*
X69597676Y-27761904D01*
X69597676Y-27761904D02*
X69788152Y-27809523D01*
X69788152Y-27809523D02*
X70121485Y-27809523D01*
X70121485Y-27809523D02*
X70311961Y-27761904D01*
X70311961Y-27761904D02*
X70407200Y-27666666D01*
X70407200Y-27666666D02*
X70454819Y-27571428D01*
X70454819Y-27571428D02*
X70454819Y-27380952D01*
X70454819Y-27380952D02*
X70407200Y-27285714D01*
X70407200Y-27285714D02*
X70311961Y-27190476D01*
X70311961Y-27190476D02*
X70121485Y-27142857D01*
X70121485Y-27142857D02*
X69788152Y-27142857D01*
X69788152Y-27142857D02*
X69597676Y-27190476D01*
X69597676Y-27190476D02*
X69502438Y-27285714D01*
X69502438Y-27285714D02*
X69454819Y-27380952D01*
X70454819Y-28238095D02*
X69454819Y-28238095D01*
X69454819Y-28238095D02*
X70454819Y-28809523D01*
X70454819Y-28809523D02*
X69454819Y-28809523D01*
D11*
%TO.C,D20*%
X163866225Y-89068954D02*
X164407887Y-88592926D01*
X164252595Y-89172481D02*
X164123186Y-89655444D01*
X164407887Y-88592926D02*
X163876626Y-88450575D01*
X164407887Y-88592926D02*
X164638966Y-89276009D01*
X164407887Y-88592926D02*
X164939146Y-88735276D01*
X164511414Y-88206556D02*
X164407887Y-88592926D01*
X164638966Y-89276009D02*
X163866225Y-89068954D01*
D12*
%TO.C,SW1*%
X91350000Y-29450000D02*
X94850000Y-29450000D01*
X94850000Y-26350000D02*
X91350000Y-26350000D01*
D11*
%TO.C,D5*%
X99700000Y-54650000D02*
X100100000Y-54050000D01*
X100100000Y-53650000D02*
X100100000Y-54050000D01*
X100100000Y-54050000D02*
X99550000Y-54050000D01*
X100100000Y-54050000D02*
X100500000Y-54650000D01*
X100100000Y-54050000D02*
X100650000Y-54050000D01*
X100100000Y-54650000D02*
X100100000Y-55150000D01*
X100500000Y-54650000D02*
X99700000Y-54650000D01*
%TO.C,D17*%
X172100000Y-52650000D02*
X172500000Y-52050000D01*
X172500000Y-51650000D02*
X172500000Y-52050000D01*
X172500000Y-52050000D02*
X171950000Y-52050000D01*
X172500000Y-52050000D02*
X172900000Y-52650000D01*
X172500000Y-52050000D02*
X173050000Y-52050000D01*
X172500000Y-52650000D02*
X172500000Y-53150000D01*
X172900000Y-52650000D02*
X172100000Y-52650000D01*
D10*
%TO.C,S20*%
X128400000Y-81500000D02*
X128400000Y-80500000D01*
X128400000Y-89000000D02*
X128400000Y-89500000D01*
X128400000Y-93100000D02*
X128400000Y-93700000D01*
X128400000Y-93700000D02*
X132900000Y-93700000D01*
X128400000Y-94500000D02*
X128400000Y-93500000D01*
X128400000Y-94500000D02*
X128400000Y-93500000D01*
X128400000Y-94500000D02*
X129400000Y-94500000D01*
X128400000Y-94500000D02*
X129400000Y-94500000D01*
X129400000Y-80500000D02*
X128400000Y-80500000D01*
X132900000Y-89000000D02*
X128400000Y-89000000D01*
X132900000Y-89700000D02*
X132900000Y-89000000D01*
X133400000Y-94200000D02*
X133400000Y-95200000D01*
X133900000Y-95700000D02*
X133400000Y-95200000D01*
X136900000Y-91200000D02*
X134400000Y-91200000D01*
X136900000Y-95700000D02*
X133900000Y-95700000D01*
X137400000Y-91700000D02*
X136900000Y-91200000D01*
X137400000Y-95200000D02*
X136900000Y-95700000D01*
X141400000Y-94500000D02*
X142400000Y-94500000D01*
X142400000Y-80500000D02*
X141400000Y-80500000D01*
X142400000Y-80500000D02*
X142400000Y-81500000D01*
X142400000Y-93500000D02*
X142400000Y-94500000D01*
X132900000Y-93700000D02*
G75*
G02*
X133400000Y-94200000I160J-499840D01*
G01*
X134400000Y-91200000D02*
G75*
G02*
X132900000Y-89700000I-136J1499864D01*
G01*
%TO.C,S10*%
X104200000Y-29800000D02*
X104200000Y-28800000D01*
X104200000Y-37300000D02*
X104200000Y-37800000D01*
X104200000Y-41400000D02*
X104200000Y-42000000D01*
X104200000Y-42000000D02*
X108700000Y-42000000D01*
X104200000Y-42800000D02*
X104200000Y-41800000D01*
X104200000Y-42800000D02*
X104200000Y-41800000D01*
X104200000Y-42800000D02*
X105200000Y-42800000D01*
X104200000Y-42800000D02*
X105200000Y-42800000D01*
X105200000Y-28800000D02*
X104200000Y-28800000D01*
X108700000Y-37300000D02*
X104200000Y-37300000D01*
X108700000Y-38000000D02*
X108700000Y-37300000D01*
X109200000Y-42500000D02*
X109200000Y-43500000D01*
X109700000Y-44000000D02*
X109200000Y-43500000D01*
X112700000Y-39500000D02*
X110200000Y-39500000D01*
X112700000Y-44000000D02*
X109700000Y-44000000D01*
X113200000Y-40000000D02*
X112700000Y-39500000D01*
X113200000Y-43500000D02*
X112700000Y-44000000D01*
X117200000Y-42800000D02*
X118200000Y-42800000D01*
X118200000Y-28800000D02*
X117200000Y-28800000D01*
X118200000Y-28800000D02*
X118200000Y-29800000D01*
X118200000Y-41800000D02*
X118200000Y-42800000D01*
X108700000Y-42000000D02*
G75*
G02*
X109200000Y-42500000I160J-499840D01*
G01*
X110200000Y-39500000D02*
G75*
G02*
X108700000Y-38000000I-136J1499864D01*
G01*
%TO.C,S8*%
X104200000Y-64000000D02*
X104200000Y-63000000D01*
X104200000Y-71500000D02*
X104200000Y-72000000D01*
X104200000Y-75600000D02*
X104200000Y-76200000D01*
X104200000Y-76200000D02*
X108700000Y-76200000D01*
X104200000Y-77000000D02*
X104200000Y-76000000D01*
X104200000Y-77000000D02*
X104200000Y-76000000D01*
X104200000Y-77000000D02*
X105200000Y-77000000D01*
X104200000Y-77000000D02*
X105200000Y-77000000D01*
X105200000Y-63000000D02*
X104200000Y-63000000D01*
X108700000Y-71500000D02*
X104200000Y-71500000D01*
X108700000Y-72200000D02*
X108700000Y-71500000D01*
X109200000Y-76700000D02*
X109200000Y-77700000D01*
X109700000Y-78200000D02*
X109200000Y-77700000D01*
X112700000Y-73700000D02*
X110200000Y-73700000D01*
X112700000Y-78200000D02*
X109700000Y-78200000D01*
X113200000Y-74200000D02*
X112700000Y-73700000D01*
X113200000Y-77700000D02*
X112700000Y-78200000D01*
X117200000Y-77000000D02*
X118200000Y-77000000D01*
X118200000Y-63000000D02*
X117200000Y-63000000D01*
X118200000Y-63000000D02*
X118200000Y-64000000D01*
X118200000Y-76000000D02*
X118200000Y-77000000D01*
X108700000Y-76200000D02*
G75*
G02*
X109200000Y-76700000I160J-499840D01*
G01*
X110200000Y-73700000D02*
G75*
G02*
X108700000Y-72200000I-136J1499864D01*
G01*
D11*
%TO.C,D19*%
X142000000Y-84250000D02*
X142400000Y-83650000D01*
X142400000Y-83250000D02*
X142400000Y-83650000D01*
X142400000Y-83650000D02*
X141850000Y-83650000D01*
X142400000Y-83650000D02*
X142800000Y-84250000D01*
X142400000Y-83650000D02*
X142950000Y-83650000D01*
X142400000Y-84250000D02*
X142400000Y-84750000D01*
X142800000Y-84250000D02*
X142000000Y-84250000D01*
D10*
%TO.C,S4*%
X68000000Y-34800000D02*
X68000000Y-33800000D01*
X68000000Y-42300000D02*
X68000000Y-42800000D01*
X68000000Y-46400000D02*
X68000000Y-47000000D01*
X68000000Y-47000000D02*
X72500000Y-47000000D01*
X68000000Y-47800000D02*
X68000000Y-46800000D01*
X68000000Y-47800000D02*
X68000000Y-46800000D01*
X68000000Y-47800000D02*
X69000000Y-47800000D01*
X68000000Y-47800000D02*
X69000000Y-47800000D01*
X69000000Y-33800000D02*
X68000000Y-33800000D01*
X72500000Y-42300000D02*
X68000000Y-42300000D01*
X72500000Y-43000000D02*
X72500000Y-42300000D01*
X73000000Y-47500000D02*
X73000000Y-48500000D01*
X73500000Y-49000000D02*
X73000000Y-48500000D01*
X76500000Y-44500000D02*
X74000000Y-44500000D01*
X76500000Y-49000000D02*
X73500000Y-49000000D01*
X77000000Y-45000000D02*
X76500000Y-44500000D01*
X77000000Y-48500000D02*
X76500000Y-49000000D01*
X81000000Y-47800000D02*
X82000000Y-47800000D01*
X82000000Y-33800000D02*
X81000000Y-33800000D01*
X82000000Y-33800000D02*
X82000000Y-34800000D01*
X82000000Y-46800000D02*
X82000000Y-47800000D01*
X72500000Y-47000000D02*
G75*
G02*
X73000000Y-47500000I160J-499840D01*
G01*
X74000000Y-44500000D02*
G75*
G02*
X72500000Y-43000000I-136J1499864D01*
G01*
D11*
%TO.C,D10*%
X135900000Y-63750000D02*
X136300000Y-63150000D01*
X136300000Y-62750000D02*
X136300000Y-63150000D01*
X136300000Y-63150000D02*
X135750000Y-63150000D01*
X136300000Y-63150000D02*
X136700000Y-63750000D01*
X136300000Y-63150000D02*
X136850000Y-63150000D01*
X136300000Y-63750000D02*
X136300000Y-64250000D01*
X136700000Y-63750000D02*
X135900000Y-63750000D01*
%TO.C,D15*%
X154000000Y-32550000D02*
X154400000Y-31950000D01*
X154400000Y-31550000D02*
X154400000Y-31950000D01*
X154400000Y-31950000D02*
X153850000Y-31950000D01*
X154400000Y-31950000D02*
X154800000Y-32550000D01*
X154400000Y-31950000D02*
X154950000Y-31950000D01*
X154400000Y-32550000D02*
X154400000Y-33050000D01*
X154800000Y-32550000D02*
X154000000Y-32550000D01*
D10*
%TO.C,S14*%
X140400000Y-64000000D02*
X140400000Y-63000000D01*
X140400000Y-71500000D02*
X140400000Y-72000000D01*
X140400000Y-75600000D02*
X140400000Y-76200000D01*
X140400000Y-76200000D02*
X144900000Y-76200000D01*
X140400000Y-77000000D02*
X140400000Y-76000000D01*
X140400000Y-77000000D02*
X140400000Y-76000000D01*
X140400000Y-77000000D02*
X141400000Y-77000000D01*
X140400000Y-77000000D02*
X141400000Y-77000000D01*
X141400000Y-63000000D02*
X140400000Y-63000000D01*
X144900000Y-71500000D02*
X140400000Y-71500000D01*
X144900000Y-72200000D02*
X144900000Y-71500000D01*
X145400000Y-76700000D02*
X145400000Y-77700000D01*
X145900000Y-78200000D02*
X145400000Y-77700000D01*
X148900000Y-73700000D02*
X146400000Y-73700000D01*
X148900000Y-78200000D02*
X145900000Y-78200000D01*
X149400000Y-74200000D02*
X148900000Y-73700000D01*
X149400000Y-77700000D02*
X148900000Y-78200000D01*
X153400000Y-77000000D02*
X154400000Y-77000000D01*
X154400000Y-63000000D02*
X153400000Y-63000000D01*
X154400000Y-63000000D02*
X154400000Y-64000000D01*
X154400000Y-76000000D02*
X154400000Y-77000000D01*
X144900000Y-76200000D02*
G75*
G02*
X145400000Y-76700000I160J-499840D01*
G01*
X146400000Y-73700000D02*
G75*
G02*
X144900000Y-72200000I-136J1499864D01*
G01*
%TO.C,S2*%
X68000000Y-69000000D02*
X68000000Y-68000000D01*
X68000000Y-76500000D02*
X68000000Y-77000000D01*
X68000000Y-80600000D02*
X68000000Y-81200000D01*
X68000000Y-81200000D02*
X72500000Y-81200000D01*
X68000000Y-82000000D02*
X68000000Y-81000000D01*
X68000000Y-82000000D02*
X68000000Y-81000000D01*
X68000000Y-82000000D02*
X69000000Y-82000000D01*
X68000000Y-82000000D02*
X69000000Y-82000000D01*
X69000000Y-68000000D02*
X68000000Y-68000000D01*
X72500000Y-76500000D02*
X68000000Y-76500000D01*
X72500000Y-77200000D02*
X72500000Y-76500000D01*
X73000000Y-81700000D02*
X73000000Y-82700000D01*
X73500000Y-83200000D02*
X73000000Y-82700000D01*
X76500000Y-78700000D02*
X74000000Y-78700000D01*
X76500000Y-83200000D02*
X73500000Y-83200000D01*
X77000000Y-79200000D02*
X76500000Y-78700000D01*
X77000000Y-82700000D02*
X76500000Y-83200000D01*
X81000000Y-82000000D02*
X82000000Y-82000000D01*
X82000000Y-68000000D02*
X81000000Y-68000000D01*
X82000000Y-68000000D02*
X82000000Y-69000000D01*
X82000000Y-81000000D02*
X82000000Y-82000000D01*
X72500000Y-81200000D02*
G75*
G02*
X73000000Y-81700000I160J-499840D01*
G01*
X74000000Y-78700000D02*
G75*
G02*
X72500000Y-77200000I-136J1499864D01*
G01*
D11*
%TO.C,D8*%
X117800000Y-49650000D02*
X118200000Y-49050000D01*
X118200000Y-48650000D02*
X118200000Y-49050000D01*
X118200000Y-49050000D02*
X117650000Y-49050000D01*
X118200000Y-49050000D02*
X118600000Y-49650000D01*
X118200000Y-49050000D02*
X118750000Y-49050000D01*
X118200000Y-49650000D02*
X118200000Y-50150000D01*
X118600000Y-49650000D02*
X117800000Y-49650000D01*
D10*
%TO.C,S5*%
X86100000Y-69000000D02*
X86100000Y-68000000D01*
X86100000Y-76500000D02*
X86100000Y-77000000D01*
X86100000Y-80600000D02*
X86100000Y-81200000D01*
X86100000Y-81200000D02*
X90600000Y-81200000D01*
X86100000Y-82000000D02*
X86100000Y-81000000D01*
X86100000Y-82000000D02*
X86100000Y-81000000D01*
X86100000Y-82000000D02*
X87100000Y-82000000D01*
X86100000Y-82000000D02*
X87100000Y-82000000D01*
X87100000Y-68000000D02*
X86100000Y-68000000D01*
X90600000Y-76500000D02*
X86100000Y-76500000D01*
X90600000Y-77200000D02*
X90600000Y-76500000D01*
X91100000Y-81700000D02*
X91100000Y-82700000D01*
X91600000Y-83200000D02*
X91100000Y-82700000D01*
X94600000Y-78700000D02*
X92100000Y-78700000D01*
X94600000Y-83200000D02*
X91600000Y-83200000D01*
X95100000Y-79200000D02*
X94600000Y-78700000D01*
X95100000Y-82700000D02*
X94600000Y-83200000D01*
X99100000Y-82000000D02*
X100100000Y-82000000D01*
X100100000Y-68000000D02*
X99100000Y-68000000D01*
X100100000Y-68000000D02*
X100100000Y-69000000D01*
X100100000Y-81000000D02*
X100100000Y-82000000D01*
X90600000Y-81200000D02*
G75*
G02*
X91100000Y-81700000I160J-499840D01*
G01*
X92100000Y-78700000D02*
G75*
G02*
X90600000Y-77200000I-136J1499864D01*
G01*
D11*
%TO.C,D7*%
X117800000Y-66750000D02*
X118200000Y-66150000D01*
X118200000Y-65750000D02*
X118200000Y-66150000D01*
X118200000Y-66150000D02*
X117650000Y-66150000D01*
X118200000Y-66150000D02*
X118600000Y-66750000D01*
X118200000Y-66150000D02*
X118750000Y-66150000D01*
X118200000Y-66750000D02*
X118200000Y-67250000D01*
X118600000Y-66750000D02*
X117800000Y-66750000D01*
D10*
%TO.C,S18*%
X158500000Y-49900000D02*
X158500000Y-48900000D01*
X158500000Y-57400000D02*
X158500000Y-57900000D01*
X158500000Y-61500000D02*
X158500000Y-62100000D01*
X158500000Y-62100000D02*
X163000000Y-62100000D01*
X158500000Y-62900000D02*
X158500000Y-61900000D01*
X158500000Y-62900000D02*
X158500000Y-61900000D01*
X158500000Y-62900000D02*
X159500000Y-62900000D01*
X158500000Y-62900000D02*
X159500000Y-62900000D01*
X159500000Y-48900000D02*
X158500000Y-48900000D01*
X163000000Y-57400000D02*
X158500000Y-57400000D01*
X163000000Y-58100000D02*
X163000000Y-57400000D01*
X163500000Y-62600000D02*
X163500000Y-63600000D01*
X164000000Y-64100000D02*
X163500000Y-63600000D01*
X167000000Y-59600000D02*
X164500000Y-59600000D01*
X167000000Y-64100000D02*
X164000000Y-64100000D01*
X167500000Y-60100000D02*
X167000000Y-59600000D01*
X167500000Y-63600000D02*
X167000000Y-64100000D01*
X171500000Y-62900000D02*
X172500000Y-62900000D01*
X172500000Y-48900000D02*
X171500000Y-48900000D01*
X172500000Y-48900000D02*
X172500000Y-49900000D01*
X172500000Y-61900000D02*
X172500000Y-62900000D01*
X163000000Y-62100000D02*
G75*
G02*
X163500000Y-62600000I160J-499840D01*
G01*
X164500000Y-59600000D02*
G75*
G02*
X163000000Y-58100000I-136J1499864D01*
G01*
D11*
%TO.C,D4*%
X99700000Y-71750000D02*
X100100000Y-71150000D01*
X100100000Y-70750000D02*
X100100000Y-71150000D01*
X100100000Y-71150000D02*
X99550000Y-71150000D01*
X100100000Y-71150000D02*
X100500000Y-71750000D01*
X100100000Y-71150000D02*
X100650000Y-71150000D01*
X100100000Y-71750000D02*
X100100000Y-72250000D01*
X100500000Y-71750000D02*
X99700000Y-71750000D01*
D12*
%TO.C,DISP1*%
X180090000Y-67400000D02*
X180090000Y-71330000D01*
X192910000Y-67400000D02*
X180090000Y-67400000D01*
X192910000Y-67400000D02*
X192910000Y-71330000D01*
X192910000Y-71330000D02*
X180090000Y-71330000D01*
D10*
%TO.C,S11*%
X122300000Y-61000000D02*
X122300000Y-60000000D01*
X122300000Y-68500000D02*
X122300000Y-69000000D01*
X122300000Y-72600000D02*
X122300000Y-73200000D01*
X122300000Y-73200000D02*
X126800000Y-73200000D01*
X122300000Y-74000000D02*
X122300000Y-73000000D01*
X122300000Y-74000000D02*
X122300000Y-73000000D01*
X122300000Y-74000000D02*
X123300000Y-74000000D01*
X122300000Y-74000000D02*
X123300000Y-74000000D01*
X123300000Y-60000000D02*
X122300000Y-60000000D01*
X126800000Y-68500000D02*
X122300000Y-68500000D01*
X126800000Y-69200000D02*
X126800000Y-68500000D01*
X127300000Y-73700000D02*
X127300000Y-74700000D01*
X127800000Y-75200000D02*
X127300000Y-74700000D01*
X130800000Y-70700000D02*
X128300000Y-70700000D01*
X130800000Y-75200000D02*
X127800000Y-75200000D01*
X131300000Y-71200000D02*
X130800000Y-70700000D01*
X131300000Y-74700000D02*
X130800000Y-75200000D01*
X135300000Y-74000000D02*
X136300000Y-74000000D01*
X136300000Y-60000000D02*
X135300000Y-60000000D01*
X136300000Y-60000000D02*
X136300000Y-61000000D01*
X136300000Y-73000000D02*
X136300000Y-74000000D01*
X126800000Y-73200000D02*
G75*
G02*
X127300000Y-73700000I160J-499840D01*
G01*
X128300000Y-70700000D02*
G75*
G02*
X126800000Y-69200000I-136J1499864D01*
G01*
D11*
%TO.C,D6*%
X99700000Y-37550000D02*
X100100000Y-36950000D01*
X100100000Y-36550000D02*
X100100000Y-36950000D01*
X100100000Y-36950000D02*
X99550000Y-36950000D01*
X100100000Y-36950000D02*
X100500000Y-37550000D01*
X100100000Y-36950000D02*
X100650000Y-36950000D01*
X100100000Y-37550000D02*
X100100000Y-38050000D01*
X100500000Y-37550000D02*
X99700000Y-37550000D01*
%TO.C,D1*%
X81600000Y-71750000D02*
X82000000Y-71150000D01*
X82000000Y-70750000D02*
X82000000Y-71150000D01*
X82000000Y-71150000D02*
X81450000Y-71150000D01*
X82000000Y-71150000D02*
X82400000Y-71750000D01*
X82000000Y-71150000D02*
X82550000Y-71150000D01*
X82000000Y-71750000D02*
X82000000Y-72250000D01*
X82400000Y-71750000D02*
X81600000Y-71750000D01*
D10*
%TO.C,S17*%
X158500000Y-67000000D02*
X158500000Y-66000000D01*
X158500000Y-74500000D02*
X158500000Y-75000000D01*
X158500000Y-78600000D02*
X158500000Y-79200000D01*
X158500000Y-79200000D02*
X163000000Y-79200000D01*
X158500000Y-80000000D02*
X158500000Y-79000000D01*
X158500000Y-80000000D02*
X158500000Y-79000000D01*
X158500000Y-80000000D02*
X159500000Y-80000000D01*
X158500000Y-80000000D02*
X159500000Y-80000000D01*
X159500000Y-66000000D02*
X158500000Y-66000000D01*
X163000000Y-74500000D02*
X158500000Y-74500000D01*
X163000000Y-75200000D02*
X163000000Y-74500000D01*
X163500000Y-79700000D02*
X163500000Y-80700000D01*
X164000000Y-81200000D02*
X163500000Y-80700000D01*
X167000000Y-76700000D02*
X164500000Y-76700000D01*
X167000000Y-81200000D02*
X164000000Y-81200000D01*
X167500000Y-77200000D02*
X167000000Y-76700000D01*
X167500000Y-80700000D02*
X167000000Y-81200000D01*
X171500000Y-80000000D02*
X172500000Y-80000000D01*
X172500000Y-66000000D02*
X171500000Y-66000000D01*
X172500000Y-66000000D02*
X172500000Y-67000000D01*
X172500000Y-79000000D02*
X172500000Y-80000000D01*
X163000000Y-79200000D02*
G75*
G02*
X163500000Y-79700000I160J-499840D01*
G01*
X164500000Y-76700000D02*
G75*
G02*
X163000000Y-75200000I-136J1499864D01*
G01*
%TO.C,S6*%
X86100000Y-51900000D02*
X86100000Y-50900000D01*
X86100000Y-59400000D02*
X86100000Y-59900000D01*
X86100000Y-63500000D02*
X86100000Y-64100000D01*
X86100000Y-64100000D02*
X90600000Y-64100000D01*
X86100000Y-64900000D02*
X86100000Y-63900000D01*
X86100000Y-64900000D02*
X86100000Y-63900000D01*
X86100000Y-64900000D02*
X87100000Y-64900000D01*
X86100000Y-64900000D02*
X87100000Y-64900000D01*
X87100000Y-50900000D02*
X86100000Y-50900000D01*
X90600000Y-59400000D02*
X86100000Y-59400000D01*
X90600000Y-60100000D02*
X90600000Y-59400000D01*
X91100000Y-64600000D02*
X91100000Y-65600000D01*
X91600000Y-66100000D02*
X91100000Y-65600000D01*
X94600000Y-61600000D02*
X92100000Y-61600000D01*
X94600000Y-66100000D02*
X91600000Y-66100000D01*
X95100000Y-62100000D02*
X94600000Y-61600000D01*
X95100000Y-65600000D02*
X94600000Y-66100000D01*
X99100000Y-64900000D02*
X100100000Y-64900000D01*
X100100000Y-50900000D02*
X99100000Y-50900000D01*
X100100000Y-50900000D02*
X100100000Y-51900000D01*
X100100000Y-63900000D02*
X100100000Y-64900000D01*
X90600000Y-64100000D02*
G75*
G02*
X91100000Y-64600000I160J-499840D01*
G01*
X92100000Y-61600000D02*
G75*
G02*
X90600000Y-60100000I-136J1499864D01*
G01*
%TO.C,S15*%
X140400000Y-46900000D02*
X140400000Y-45900000D01*
X140400000Y-54400000D02*
X140400000Y-54900000D01*
X140400000Y-58500000D02*
X140400000Y-59100000D01*
X140400000Y-59100000D02*
X144900000Y-59100000D01*
X140400000Y-59900000D02*
X140400000Y-58900000D01*
X140400000Y-59900000D02*
X140400000Y-58900000D01*
X140400000Y-59900000D02*
X141400000Y-59900000D01*
X140400000Y-59900000D02*
X141400000Y-59900000D01*
X141400000Y-45900000D02*
X140400000Y-45900000D01*
X144900000Y-54400000D02*
X140400000Y-54400000D01*
X144900000Y-55100000D02*
X144900000Y-54400000D01*
X145400000Y-59600000D02*
X145400000Y-60600000D01*
X145900000Y-61100000D02*
X145400000Y-60600000D01*
X148900000Y-56600000D02*
X146400000Y-56600000D01*
X148900000Y-61100000D02*
X145900000Y-61100000D01*
X149400000Y-57100000D02*
X148900000Y-56600000D01*
X149400000Y-60600000D02*
X148900000Y-61100000D01*
X153400000Y-59900000D02*
X154400000Y-59900000D01*
X154400000Y-45900000D02*
X153400000Y-45900000D01*
X154400000Y-45900000D02*
X154400000Y-46900000D01*
X154400000Y-58900000D02*
X154400000Y-59900000D01*
X144900000Y-59100000D02*
G75*
G02*
X145400000Y-59600000I160J-499840D01*
G01*
X146400000Y-56600000D02*
G75*
G02*
X144900000Y-55100000I-136J1499864D01*
G01*
D11*
%TO.C,D13*%
X154000000Y-66750000D02*
X154400000Y-66150000D01*
X154400000Y-65750000D02*
X154400000Y-66150000D01*
X154400000Y-66150000D02*
X153850000Y-66150000D01*
X154400000Y-66150000D02*
X154800000Y-66750000D01*
X154400000Y-66150000D02*
X154950000Y-66150000D01*
X154400000Y-66750000D02*
X154400000Y-67250000D01*
X154800000Y-66750000D02*
X154000000Y-66750000D01*
D10*
%TO.C,S21*%
X148076786Y-95449747D02*
X148335605Y-94483822D01*
X148076786Y-95449747D02*
X148335605Y-94483822D01*
X148076786Y-95449747D02*
X149042712Y-95708567D01*
X148076786Y-95449747D02*
X149042712Y-95708567D01*
X148283841Y-94677007D02*
X152630507Y-95841693D01*
X148439133Y-94097451D02*
X148283841Y-94677007D01*
X149500291Y-90137154D02*
X149370881Y-90620118D01*
X151441433Y-82892712D02*
X151700253Y-81926786D01*
X152666178Y-82185605D02*
X151700253Y-81926786D01*
X152984061Y-96454065D02*
X152725242Y-97419991D01*
X153078795Y-98032363D02*
X152725242Y-97419991D01*
X153665784Y-91977989D02*
X153846957Y-91301841D01*
X153846957Y-91301841D02*
X149500291Y-90137154D01*
X155976573Y-98808820D02*
X153078795Y-98032363D01*
X156588945Y-98455267D02*
X155976573Y-98808820D01*
X157141258Y-94462154D02*
X154726444Y-93815107D01*
X157494812Y-95074527D02*
X157141258Y-94462154D01*
X160633822Y-98814395D02*
X161599747Y-99073214D01*
X161858567Y-98107288D02*
X161599747Y-99073214D01*
X165223214Y-85550253D02*
X164257288Y-85291433D01*
X165223214Y-85550253D02*
X164964395Y-86516178D01*
X152630507Y-95841693D02*
G75*
G02*
X152984060Y-96454065I-129213J-482849D01*
G01*
X154726444Y-93815107D02*
G75*
G02*
X153665784Y-91977989I388062J1448793D01*
G01*
%TO.C,S1*%
X169932277Y-97417377D02*
X169358701Y-98236529D01*
X170177853Y-98810106D02*
X169358701Y-98236529D01*
X171530389Y-93042901D02*
X173251118Y-90585445D01*
X171653176Y-93739266D02*
X171530389Y-93042901D01*
X173251118Y-90585445D02*
X173947482Y-90462657D01*
X174520209Y-95746783D02*
X175216573Y-95623995D01*
X174766634Y-91036234D02*
X173947482Y-90462657D01*
X175216573Y-95623995D02*
X176650514Y-93576115D01*
X177388771Y-86768401D02*
X176815194Y-87587553D01*
X177388771Y-86768401D02*
X176815194Y-87587553D01*
X177388771Y-86768401D02*
X178207923Y-87341977D01*
X177388771Y-86768401D02*
X178207923Y-87341977D01*
X178044092Y-87227262D02*
X175462998Y-90913446D01*
X178535584Y-87571408D02*
X178044092Y-87227262D01*
X178739607Y-93207752D02*
X179313013Y-93609255D01*
X179313013Y-93609255D02*
X181894107Y-89923071D01*
X180826829Y-106266599D02*
X180007677Y-105693023D01*
X180826829Y-106266599D02*
X181400406Y-105447447D01*
X181894107Y-89923071D02*
X181484531Y-89636283D01*
X188037747Y-94224894D02*
X188856899Y-94798471D01*
X188283323Y-95617623D02*
X188856899Y-94798471D01*
X175462998Y-90913446D02*
G75*
G02*
X174766635Y-91036233I-409536J286565D01*
G01*
X176650514Y-93576115D02*
G75*
G02*
X178739607Y-93207752I1228694J-860170D01*
G01*
D11*
%TO.C,D3*%
X81600000Y-37550000D02*
X82000000Y-36950000D01*
X82000000Y-36550000D02*
X82000000Y-36950000D01*
X82000000Y-36950000D02*
X81450000Y-36950000D01*
X82000000Y-36950000D02*
X82400000Y-37550000D01*
X82000000Y-36950000D02*
X82550000Y-36950000D01*
X82000000Y-37550000D02*
X82000000Y-38050000D01*
X82400000Y-37550000D02*
X81600000Y-37550000D01*
D10*
%TO.C,S19*%
X158500000Y-32800000D02*
X158500000Y-31800000D01*
X158500000Y-40300000D02*
X158500000Y-40800000D01*
X158500000Y-44400000D02*
X158500000Y-45000000D01*
X158500000Y-45000000D02*
X163000000Y-45000000D01*
X158500000Y-45800000D02*
X158500000Y-44800000D01*
X158500000Y-45800000D02*
X158500000Y-44800000D01*
X158500000Y-45800000D02*
X159500000Y-45800000D01*
X158500000Y-45800000D02*
X159500000Y-45800000D01*
X159500000Y-31800000D02*
X158500000Y-31800000D01*
X163000000Y-40300000D02*
X158500000Y-40300000D01*
X163000000Y-41000000D02*
X163000000Y-40300000D01*
X163500000Y-45500000D02*
X163500000Y-46500000D01*
X164000000Y-47000000D02*
X163500000Y-46500000D01*
X167000000Y-42500000D02*
X164500000Y-42500000D01*
X167000000Y-47000000D02*
X164000000Y-47000000D01*
X167500000Y-43000000D02*
X167000000Y-42500000D01*
X167500000Y-46500000D02*
X167000000Y-47000000D01*
X171500000Y-45800000D02*
X172500000Y-45800000D01*
X172500000Y-31800000D02*
X171500000Y-31800000D01*
X172500000Y-31800000D02*
X172500000Y-32800000D01*
X172500000Y-44800000D02*
X172500000Y-45800000D01*
X163000000Y-45000000D02*
G75*
G02*
X163500000Y-45500000I160J-499840D01*
G01*
X164500000Y-42500000D02*
G75*
G02*
X163000000Y-41000000I-136J1499864D01*
G01*
D12*
%TO.C,MCU1*%
X177550000Y-36270000D02*
X177550000Y-66870000D01*
X177550000Y-38870000D02*
X180210000Y-38870000D01*
X180210000Y-36270000D02*
X177550000Y-36270000D01*
X180210000Y-36270000D02*
X180210000Y-66870000D01*
X180210000Y-66870000D02*
X177550000Y-66870000D01*
X192790000Y-36270000D02*
X192790000Y-66870000D01*
X195450000Y-36270000D02*
X192790000Y-36270000D01*
X195450000Y-36270000D02*
X195450000Y-66870000D01*
X195450000Y-66870000D02*
X192790000Y-66870000D01*
D10*
%TO.C,S7*%
X86100000Y-34800000D02*
X86100000Y-33800000D01*
X86100000Y-42300000D02*
X86100000Y-42800000D01*
X86100000Y-46400000D02*
X86100000Y-47000000D01*
X86100000Y-47000000D02*
X90600000Y-47000000D01*
X86100000Y-47800000D02*
X86100000Y-46800000D01*
X86100000Y-47800000D02*
X86100000Y-46800000D01*
X86100000Y-47800000D02*
X87100000Y-47800000D01*
X86100000Y-47800000D02*
X87100000Y-47800000D01*
X87100000Y-33800000D02*
X86100000Y-33800000D01*
X90600000Y-42300000D02*
X86100000Y-42300000D01*
X90600000Y-43000000D02*
X90600000Y-42300000D01*
X91100000Y-47500000D02*
X91100000Y-48500000D01*
X91600000Y-49000000D02*
X91100000Y-48500000D01*
X94600000Y-44500000D02*
X92100000Y-44500000D01*
X94600000Y-49000000D02*
X91600000Y-49000000D01*
X95100000Y-45000000D02*
X94600000Y-44500000D01*
X95100000Y-48500000D02*
X94600000Y-49000000D01*
X99100000Y-47800000D02*
X100100000Y-47800000D01*
X100100000Y-33800000D02*
X99100000Y-33800000D01*
X100100000Y-33800000D02*
X100100000Y-34800000D01*
X100100000Y-46800000D02*
X100100000Y-47800000D01*
X90600000Y-47000000D02*
G75*
G02*
X91100000Y-47500000I160J-499840D01*
G01*
X92100000Y-44500000D02*
G75*
G02*
X90600000Y-43000000I-136J1499864D01*
G01*
D11*
%TO.C,D21*%
X177525581Y-104443367D02*
X177984443Y-103788045D01*
X177755012Y-104115706D02*
X177345436Y-103828918D01*
X177984443Y-103788045D02*
X178246503Y-104459852D01*
X178246503Y-104459852D02*
X177525581Y-104443367D01*
X178246503Y-104459852D02*
X177931036Y-104910385D01*
X178246503Y-104459852D02*
X178561970Y-104009318D01*
X178574164Y-104689282D02*
X178246503Y-104459852D01*
%TO.C,D11*%
X135900000Y-46650000D02*
X136300000Y-46050000D01*
X136300000Y-45650000D02*
X136300000Y-46050000D01*
X136300000Y-46050000D02*
X135750000Y-46050000D01*
X136300000Y-46050000D02*
X136700000Y-46650000D01*
X136300000Y-46050000D02*
X136850000Y-46050000D01*
X136300000Y-46650000D02*
X136300000Y-47150000D01*
X136700000Y-46650000D02*
X135900000Y-46650000D01*
%TO.C,D16*%
X172100000Y-69750000D02*
X172500000Y-69150000D01*
X172500000Y-68750000D02*
X172500000Y-69150000D01*
X172500000Y-69150000D02*
X171950000Y-69150000D01*
X172500000Y-69150000D02*
X172900000Y-69750000D01*
X172500000Y-69150000D02*
X173050000Y-69150000D01*
X172500000Y-69750000D02*
X172500000Y-70250000D01*
X172900000Y-69750000D02*
X172100000Y-69750000D01*
%TO.C,D18*%
X172100000Y-35550000D02*
X172500000Y-34950000D01*
X172500000Y-34550000D02*
X172500000Y-34950000D01*
X172500000Y-34950000D02*
X171950000Y-34950000D01*
X172500000Y-34950000D02*
X172900000Y-35550000D01*
X172500000Y-34950000D02*
X173050000Y-34950000D01*
X172500000Y-35550000D02*
X172500000Y-36050000D01*
X172900000Y-35550000D02*
X172100000Y-35550000D01*
D10*
%TO.C,S9*%
X104200000Y-46900000D02*
X104200000Y-45900000D01*
X104200000Y-54400000D02*
X104200000Y-54900000D01*
X104200000Y-58500000D02*
X104200000Y-59100000D01*
X104200000Y-59100000D02*
X108700000Y-59100000D01*
X104200000Y-59900000D02*
X104200000Y-58900000D01*
X104200000Y-59900000D02*
X104200000Y-58900000D01*
X104200000Y-59900000D02*
X105200000Y-59900000D01*
X104200000Y-59900000D02*
X105200000Y-59900000D01*
X105200000Y-45900000D02*
X104200000Y-45900000D01*
X108700000Y-54400000D02*
X104200000Y-54400000D01*
X108700000Y-55100000D02*
X108700000Y-54400000D01*
X109200000Y-59600000D02*
X109200000Y-60600000D01*
X109700000Y-61100000D02*
X109200000Y-60600000D01*
X112700000Y-56600000D02*
X110200000Y-56600000D01*
X112700000Y-61100000D02*
X109700000Y-61100000D01*
X113200000Y-57100000D02*
X112700000Y-56600000D01*
X113200000Y-60600000D02*
X112700000Y-61100000D01*
X117200000Y-59900000D02*
X118200000Y-59900000D01*
X118200000Y-45900000D02*
X117200000Y-45900000D01*
X118200000Y-45900000D02*
X118200000Y-46900000D01*
X118200000Y-58900000D02*
X118200000Y-59900000D01*
X108700000Y-59100000D02*
G75*
G02*
X109200000Y-59600000I160J-499840D01*
G01*
X110200000Y-56600000D02*
G75*
G02*
X108700000Y-55100000I-136J1499864D01*
G01*
D11*
%TO.C,D14*%
X154000000Y-49650000D02*
X154400000Y-49050000D01*
X154400000Y-48650000D02*
X154400000Y-49050000D01*
X154400000Y-49050000D02*
X153850000Y-49050000D01*
X154400000Y-49050000D02*
X154800000Y-49650000D01*
X154400000Y-49050000D02*
X154950000Y-49050000D01*
X154400000Y-49650000D02*
X154400000Y-50150000D01*
X154800000Y-49650000D02*
X154000000Y-49650000D01*
D10*
%TO.C,S12*%
X122300000Y-43900000D02*
X122300000Y-42900000D01*
X122300000Y-51400000D02*
X122300000Y-51900000D01*
X122300000Y-55500000D02*
X122300000Y-56100000D01*
X122300000Y-56100000D02*
X126800000Y-56100000D01*
X122300000Y-56900000D02*
X122300000Y-55900000D01*
X122300000Y-56900000D02*
X122300000Y-55900000D01*
X122300000Y-56900000D02*
X123300000Y-56900000D01*
X122300000Y-56900000D02*
X123300000Y-56900000D01*
X123300000Y-42900000D02*
X122300000Y-42900000D01*
X126800000Y-51400000D02*
X122300000Y-51400000D01*
X126800000Y-52100000D02*
X126800000Y-51400000D01*
X127300000Y-56600000D02*
X127300000Y-57600000D01*
X127800000Y-58100000D02*
X127300000Y-57600000D01*
X130800000Y-53600000D02*
X128300000Y-53600000D01*
X130800000Y-58100000D02*
X127800000Y-58100000D01*
X131300000Y-54100000D02*
X130800000Y-53600000D01*
X131300000Y-57600000D02*
X130800000Y-58100000D01*
X135300000Y-56900000D02*
X136300000Y-56900000D01*
X136300000Y-42900000D02*
X135300000Y-42900000D01*
X136300000Y-42900000D02*
X136300000Y-43900000D01*
X136300000Y-55900000D02*
X136300000Y-56900000D01*
X126800000Y-56100000D02*
G75*
G02*
X127300000Y-56600000I160J-499840D01*
G01*
X128300000Y-53600000D02*
G75*
G02*
X126800000Y-52100000I-136J1499864D01*
G01*
D11*
%TO.C,D2*%
X81600000Y-54650000D02*
X82000000Y-54050000D01*
X82000000Y-53650000D02*
X82000000Y-54050000D01*
X82000000Y-54050000D02*
X81450000Y-54050000D01*
X82000000Y-54050000D02*
X82400000Y-54650000D01*
X82000000Y-54050000D02*
X82550000Y-54050000D01*
X82000000Y-54650000D02*
X82000000Y-55150000D01*
X82400000Y-54650000D02*
X81600000Y-54650000D01*
%TO.C,D12*%
X135900000Y-29550000D02*
X136300000Y-28950000D01*
X136300000Y-28550000D02*
X136300000Y-28950000D01*
X136300000Y-28950000D02*
X135750000Y-28950000D01*
X136300000Y-28950000D02*
X136700000Y-29550000D01*
X136300000Y-28950000D02*
X136850000Y-28950000D01*
X136300000Y-29550000D02*
X136300000Y-30050000D01*
X136700000Y-29550000D02*
X135900000Y-29550000D01*
D10*
%TO.C,S16*%
X140400000Y-29800000D02*
X140400000Y-28800000D01*
X140400000Y-37300000D02*
X140400000Y-37800000D01*
X140400000Y-41400000D02*
X140400000Y-42000000D01*
X140400000Y-42000000D02*
X144900000Y-42000000D01*
X140400000Y-42800000D02*
X140400000Y-41800000D01*
X140400000Y-42800000D02*
X140400000Y-41800000D01*
X140400000Y-42800000D02*
X141400000Y-42800000D01*
X140400000Y-42800000D02*
X141400000Y-42800000D01*
X141400000Y-28800000D02*
X140400000Y-28800000D01*
X144900000Y-37300000D02*
X140400000Y-37300000D01*
X144900000Y-38000000D02*
X144900000Y-37300000D01*
X145400000Y-42500000D02*
X145400000Y-43500000D01*
X145900000Y-44000000D02*
X145400000Y-43500000D01*
X148900000Y-39500000D02*
X146400000Y-39500000D01*
X148900000Y-44000000D02*
X145900000Y-44000000D01*
X149400000Y-40000000D02*
X148900000Y-39500000D01*
X149400000Y-43500000D02*
X148900000Y-44000000D01*
X153400000Y-42800000D02*
X154400000Y-42800000D01*
X154400000Y-28800000D02*
X153400000Y-28800000D01*
X154400000Y-28800000D02*
X154400000Y-29800000D01*
X154400000Y-41800000D02*
X154400000Y-42800000D01*
X144900000Y-42000000D02*
G75*
G02*
X145400000Y-42500000I160J-499840D01*
G01*
X146400000Y-39500000D02*
G75*
G02*
X144900000Y-38000000I-136J1499864D01*
G01*
D11*
%TO.C,D9*%
X117800000Y-32550000D02*
X118200000Y-31950000D01*
X118200000Y-31550000D02*
X118200000Y-31950000D01*
X118200000Y-31950000D02*
X117650000Y-31950000D01*
X118200000Y-31950000D02*
X118600000Y-32550000D01*
X118200000Y-31950000D02*
X118750000Y-31950000D01*
X118200000Y-32550000D02*
X118200000Y-33050000D01*
X118600000Y-32550000D02*
X117800000Y-32550000D01*
D10*
%TO.C,S13*%
X122300000Y-26800000D02*
X122300000Y-25800000D01*
X122300000Y-34300000D02*
X122300000Y-34800000D01*
X122300000Y-38400000D02*
X122300000Y-39000000D01*
X122300000Y-39000000D02*
X126800000Y-39000000D01*
X122300000Y-39800000D02*
X122300000Y-38800000D01*
X122300000Y-39800000D02*
X122300000Y-38800000D01*
X122300000Y-39800000D02*
X123300000Y-39800000D01*
X122300000Y-39800000D02*
X123300000Y-39800000D01*
X123300000Y-25800000D02*
X122300000Y-25800000D01*
X126800000Y-34300000D02*
X122300000Y-34300000D01*
X126800000Y-35000000D02*
X126800000Y-34300000D01*
X127300000Y-39500000D02*
X127300000Y-40500000D01*
X127800000Y-41000000D02*
X127300000Y-40500000D01*
X130800000Y-36500000D02*
X128300000Y-36500000D01*
X130800000Y-41000000D02*
X127800000Y-41000000D01*
X131300000Y-37000000D02*
X130800000Y-36500000D01*
X131300000Y-40500000D02*
X130800000Y-41000000D01*
X135300000Y-39800000D02*
X136300000Y-39800000D01*
X136300000Y-25800000D02*
X135300000Y-25800000D01*
X136300000Y-25800000D02*
X136300000Y-26800000D01*
X136300000Y-38800000D02*
X136300000Y-39800000D01*
X126800000Y-39000000D02*
G75*
G02*
X127300000Y-39500000I160J-499840D01*
G01*
X128300000Y-36500000D02*
G75*
G02*
X126800000Y-35000000I-136J1499864D01*
G01*
%TO.C,S3*%
X68000000Y-51900000D02*
X68000000Y-50900000D01*
X68000000Y-59400000D02*
X68000000Y-59900000D01*
X68000000Y-63500000D02*
X68000000Y-64100000D01*
X68000000Y-64100000D02*
X72500000Y-64100000D01*
X68000000Y-64900000D02*
X68000000Y-63900000D01*
X68000000Y-64900000D02*
X68000000Y-63900000D01*
X68000000Y-64900000D02*
X69000000Y-64900000D01*
X68000000Y-64900000D02*
X69000000Y-64900000D01*
X69000000Y-50900000D02*
X68000000Y-50900000D01*
X72500000Y-59400000D02*
X68000000Y-59400000D01*
X72500000Y-60100000D02*
X72500000Y-59400000D01*
X73000000Y-64600000D02*
X73000000Y-65600000D01*
X73500000Y-66100000D02*
X73000000Y-65600000D01*
X76500000Y-61600000D02*
X74000000Y-61600000D01*
X76500000Y-66100000D02*
X73500000Y-66100000D01*
X77000000Y-62100000D02*
X76500000Y-61600000D01*
X77000000Y-65600000D02*
X76500000Y-66100000D01*
X81000000Y-64900000D02*
X82000000Y-64900000D01*
X82000000Y-50900000D02*
X81000000Y-50900000D01*
X82000000Y-50900000D02*
X82000000Y-51900000D01*
X82000000Y-63900000D02*
X82000000Y-64900000D01*
X72500000Y-64100000D02*
G75*
G02*
X73000000Y-64600000I160J-499840D01*
G01*
X74000000Y-61600000D02*
G75*
G02*
X72500000Y-60100000I-136J1499864D01*
G01*
D12*
%TO.C,LED3*%
X125500000Y-26700000D02*
X127100000Y-26700000D01*
X125500000Y-28300000D02*
X125500000Y-26700000D01*
%TO.C,LED1*%
X161700000Y-32700000D02*
X163300000Y-32700000D01*
X161700000Y-34300000D02*
X161700000Y-32700000D01*
%TO.C,LED18*%
X71200000Y-68900000D02*
X72800000Y-68900000D01*
X71200000Y-70500000D02*
X71200000Y-68900000D01*
%TO.C,LED15*%
X125500000Y-60900000D02*
X127100000Y-60900000D01*
X125500000Y-62500000D02*
X125500000Y-60900000D01*
%TO.C,LED21*%
X184973590Y-95985822D02*
X186284234Y-96903545D01*
X186284234Y-96903545D02*
X185366511Y-98214188D01*
%TO.C,LED6*%
X71200000Y-34700000D02*
X72800000Y-34700000D01*
X71200000Y-36300000D02*
X71200000Y-34700000D01*
%TO.C,LED11*%
X151200000Y-48400000D02*
X151200000Y-50000000D01*
X151200000Y-50000000D02*
X149600000Y-50000000D01*
%TO.C,LED20*%
X161071108Y-88682294D02*
X159525626Y-88268183D01*
X161485218Y-87136812D02*
X161071108Y-88682294D01*
%TO.C,LED7*%
X78800000Y-53400000D02*
X78800000Y-55000000D01*
X78800000Y-55000000D02*
X77200000Y-55000000D01*
%TO.C,LED17*%
X89300000Y-68900000D02*
X90900000Y-68900000D01*
X89300000Y-70500000D02*
X89300000Y-68900000D01*
%TO.C,LED19*%
X139200000Y-83000000D02*
X139200000Y-84600000D01*
X139200000Y-84600000D02*
X137600000Y-84600000D01*
%TO.C,LED9*%
X115000000Y-48400000D02*
X115000000Y-50000000D01*
X115000000Y-50000000D02*
X113400000Y-50000000D01*
%TO.C,LED14*%
X143600000Y-63900000D02*
X145200000Y-63900000D01*
X143600000Y-65500000D02*
X143600000Y-63900000D01*
%TO.C,LED5*%
X89300000Y-34700000D02*
X90900000Y-34700000D01*
X89300000Y-36300000D02*
X89300000Y-34700000D01*
%TO.C,LED12*%
X169300000Y-51400000D02*
X169300000Y-53000000D01*
X169300000Y-53000000D02*
X167700000Y-53000000D01*
%TO.C,LED10*%
X133100000Y-45400000D02*
X133100000Y-47000000D01*
X133100000Y-47000000D02*
X131500000Y-47000000D01*
%TO.C,PWR1*%
X71550000Y-28375000D02*
X71550000Y-27585000D01*
X72150000Y-26575000D02*
X77850000Y-26575000D01*
X73400000Y-29425000D02*
X75100000Y-29425000D01*
X76400000Y-29425000D02*
X76600000Y-29425000D01*
X78450000Y-27585000D02*
X78450000Y-28375000D01*
%TO.C,LED4*%
X107400000Y-29700000D02*
X109000000Y-29700000D01*
X107400000Y-31300000D02*
X107400000Y-29700000D01*
%TO.C,D22*%
X187765000Y-84800000D02*
X187765000Y-84140000D01*
X187765000Y-86470000D02*
X187765000Y-85800000D01*
X189175000Y-84140000D02*
X187765000Y-84140000D01*
X189175000Y-86470000D02*
X187765000Y-86470000D01*
X189545000Y-84150000D02*
X189305000Y-83820000D01*
X189785000Y-83820000D01*
X189545000Y-84150000D01*
G36*
X189545000Y-84150000D02*
G01*
X189305000Y-83820000D01*
X189785000Y-83820000D01*
X189545000Y-84150000D01*
G37*
%TO.C,LED13*%
X161700000Y-66900000D02*
X163300000Y-66900000D01*
X161700000Y-68500000D02*
X161700000Y-66900000D01*
%TO.C,LED8*%
X96900000Y-53400000D02*
X96900000Y-55000000D01*
X96900000Y-55000000D02*
X95300000Y-55000000D01*
%TO.C,LED16*%
X107400000Y-63900000D02*
X109000000Y-63900000D01*
X107400000Y-65500000D02*
X107400000Y-63900000D01*
%TO.C,LED2*%
X143600000Y-29700000D02*
X145200000Y-29700000D01*
X143600000Y-31300000D02*
X143600000Y-29700000D01*
%TD*%
M02*
