%TF.GenerationSoftware,KiCad,Pcbnew,8.0.5*%
%TF.CreationDate,2024-11-11T15:34:28+00:00*%
%TF.ProjectId,kybd,6b796264-2e6b-4696-9361-645f70636258,v1.0.0*%
%TF.SameCoordinates,Original*%
%TF.FileFunction,Paste,Top*%
%TF.FilePolarity,Positive*%
%FSLAX46Y46*%
G04 Gerber Fmt 4.6, Leading zero omitted, Abs format (unit mm)*
G04 Created by KiCad (PCBNEW 8.0.5) date 2024-11-11 15:34:28*
%MOMM*%
%LPD*%
G01*
G04 APERTURE LIST*
G04 Aperture macros list*
%AMRoundRect*
0 Rectangle with rounded corners*
0 $1 Rounding radius*
0 $2 $3 $4 $5 $6 $7 $8 $9 X,Y pos of 4 corners*
0 Add a 4 corners polygon primitive as box body*
4,1,4,$2,$3,$4,$5,$6,$7,$8,$9,$2,$3,0*
0 Add four circle primitives for the rounded corners*
1,1,$1+$1,$2,$3*
1,1,$1+$1,$4,$5*
1,1,$1+$1,$6,$7*
1,1,$1+$1,$8,$9*
0 Add four rect primitives between the rounded corners*
20,1,$1+$1,$2,$3,$4,$5,0*
20,1,$1+$1,$4,$5,$6,$7,0*
20,1,$1+$1,$6,$7,$8,$9,0*
20,1,$1+$1,$8,$9,$2,$3,0*%
%AMRotRect*
0 Rectangle, with rotation*
0 The origin of the aperture is its center*
0 $1 length*
0 $2 width*
0 $3 Rotation angle, in degrees counterclockwise*
0 Add horizontal line*
21,1,$1,$2,0,0,$3*%
G04 Aperture macros list end*
%ADD10RotRect,0.900000X1.200000X255.000000*%
%ADD11R,1.400000X1.050000*%
%ADD12R,1.200000X0.900000*%
%ADD13R,2.600000X2.600000*%
%ADD14RotRect,2.600000X2.600000X165.000000*%
%ADD15RotRect,2.600000X2.600000X55.000000*%
%ADD16RotRect,0.900000X1.200000X145.000000*%
%ADD17R,1.400000X1.000000*%
%ADD18RotRect,1.400000X1.000000X235.000000*%
%ADD19RotRect,1.400000X1.000000X165.000000*%
%ADD20R,1.000000X0.800000*%
%ADD21R,0.700000X1.500000*%
%ADD22RoundRect,0.112500X0.637500X-0.112500X0.637500X0.112500X-0.637500X0.112500X-0.637500X-0.112500X0*%
G04 APERTURE END LIST*
D10*
%TO.C,D20*%
X164744350Y-87337222D03*
X163890250Y-90524778D03*
%TD*%
D11*
%TO.C,SW1*%
X91300000Y-28620000D03*
X94900000Y-28620000D03*
X91300000Y-27180000D03*
X94900000Y-27180000D03*
%TD*%
D12*
%TO.C,D5*%
X100100000Y-52750000D03*
X100100000Y-56050000D03*
%TD*%
%TO.C,D17*%
X172500000Y-50750000D03*
X172500000Y-54050000D03*
%TD*%
D13*
%TO.C,S20*%
X143675000Y-91250000D03*
%TD*%
%TO.C,S10*%
X119475000Y-39550000D03*
%TD*%
%TO.C,S8*%
X119475000Y-73750000D03*
%TD*%
D12*
%TO.C,D19*%
X142400000Y-82350000D03*
X142400000Y-85650000D03*
%TD*%
D13*
%TO.C,S4*%
X83275000Y-44550000D03*
%TD*%
D12*
%TO.C,D10*%
X136300000Y-61850000D03*
X136300000Y-65150000D03*
%TD*%
%TO.C,D15*%
X154400000Y-30650000D03*
X154400000Y-33950000D03*
%TD*%
D13*
%TO.C,S14*%
X155675000Y-73750000D03*
%TD*%
%TO.C,S2*%
X83275000Y-78750000D03*
%TD*%
D12*
%TO.C,D8*%
X118200000Y-47750000D03*
X118200000Y-51050000D03*
%TD*%
D13*
%TO.C,S5*%
X101375000Y-78750000D03*
%TD*%
D12*
%TO.C,D7*%
X118200000Y-64850000D03*
X118200000Y-68150000D03*
%TD*%
D13*
%TO.C,S18*%
X173775000Y-59650000D03*
%TD*%
D12*
%TO.C,D4*%
X100100000Y-69850000D03*
X100100000Y-73150000D03*
%TD*%
D13*
%TO.C,S11*%
X137575000Y-70750000D03*
%TD*%
D12*
%TO.C,D6*%
X100100000Y-35650000D03*
X100100000Y-38950000D03*
%TD*%
%TO.C,D1*%
X82000000Y-69850000D03*
X82000000Y-73150000D03*
%TD*%
D13*
%TO.C,S17*%
X173775000Y-76750000D03*
%TD*%
%TO.C,S6*%
X101375000Y-61650000D03*
%TD*%
%TO.C,S15*%
X155675000Y-56650000D03*
%TD*%
D12*
%TO.C,D13*%
X154400000Y-64850000D03*
X154400000Y-68150000D03*
%TD*%
D14*
%TO.C,S21*%
X163672465Y-96263949D03*
%TD*%
D15*
%TO.C,S1*%
X171289635Y-101145072D03*
%TD*%
D12*
%TO.C,D3*%
X82000000Y-35650000D03*
X82000000Y-38950000D03*
%TD*%
D13*
%TO.C,S19*%
X173775000Y-42550000D03*
%TD*%
%TO.C,S7*%
X101375000Y-44550000D03*
%TD*%
D16*
%TO.C,D21*%
X179311401Y-105205501D03*
X176608199Y-103312699D03*
%TD*%
D12*
%TO.C,D11*%
X136300000Y-44750000D03*
X136300000Y-48050000D03*
%TD*%
%TO.C,D16*%
X172500000Y-67850000D03*
X172500000Y-71150000D03*
%TD*%
%TO.C,D18*%
X172500000Y-33650000D03*
X172500000Y-36950000D03*
%TD*%
D13*
%TO.C,S9*%
X119475000Y-56650000D03*
%TD*%
D12*
%TO.C,D14*%
X154400000Y-47750000D03*
X154400000Y-51050000D03*
%TD*%
D13*
%TO.C,S12*%
X137575000Y-53650000D03*
%TD*%
D12*
%TO.C,D2*%
X82000000Y-52750000D03*
X82000000Y-56050000D03*
%TD*%
%TO.C,D12*%
X136300000Y-27650000D03*
X136300000Y-30950000D03*
%TD*%
D13*
%TO.C,S16*%
X155675000Y-39550000D03*
%TD*%
D12*
%TO.C,D9*%
X118200000Y-30650000D03*
X118200000Y-33950000D03*
%TD*%
D13*
%TO.C,S13*%
X137575000Y-36550000D03*
%TD*%
%TO.C,S3*%
X83275000Y-61650000D03*
%TD*%
D17*
%TO.C,LED3*%
X132000000Y-27600000D03*
X132000000Y-29000000D03*
X126600000Y-29000000D03*
X126600000Y-27600000D03*
%TD*%
%TO.C,LED1*%
X168200000Y-33600000D03*
X168200000Y-35000000D03*
X162800000Y-35000000D03*
X162800000Y-33600000D03*
%TD*%
%TO.C,LED18*%
X77700000Y-69800000D03*
X77700000Y-71200000D03*
X72300000Y-71200000D03*
X72300000Y-69800000D03*
%TD*%
%TO.C,LED15*%
X132000000Y-61800000D03*
X132000000Y-63200000D03*
X126600000Y-63200000D03*
X126600000Y-61800000D03*
%TD*%
D18*
%TO.C,LED21*%
X181818750Y-101711814D03*
X180671937Y-100908807D03*
X183769250Y-96485386D03*
X184916063Y-97288393D03*
%TD*%
D17*
%TO.C,LED6*%
X77700000Y-35600000D03*
X77700000Y-37000000D03*
X72300000Y-37000000D03*
X72300000Y-35600000D03*
%TD*%
%TO.C,LED11*%
X144700000Y-49100000D03*
X144700000Y-47700000D03*
X150100000Y-47700000D03*
X150100000Y-49100000D03*
%TD*%
D19*
%TO.C,LED20*%
X155025527Y-86130637D03*
X155387874Y-84778340D03*
X160603873Y-86175963D03*
X160241526Y-87528260D03*
%TD*%
D17*
%TO.C,LED7*%
X72300000Y-54100000D03*
X72300000Y-52700000D03*
X77700000Y-52700000D03*
X77700000Y-54100000D03*
%TD*%
%TO.C,LED17*%
X95800000Y-69800000D03*
X95800000Y-71200000D03*
X90400000Y-71200000D03*
X90400000Y-69800000D03*
%TD*%
%TO.C,LED19*%
X132700000Y-83700000D03*
X132700000Y-82300000D03*
X138100000Y-82300000D03*
X138100000Y-83700000D03*
%TD*%
%TO.C,LED9*%
X108500000Y-49100000D03*
X108500000Y-47700000D03*
X113900000Y-47700000D03*
X113900000Y-49100000D03*
%TD*%
%TO.C,LED14*%
X150100000Y-64800000D03*
X150100000Y-66200000D03*
X144700000Y-66200000D03*
X144700000Y-64800000D03*
%TD*%
%TO.C,LED5*%
X95800000Y-35600000D03*
X95800000Y-37000000D03*
X90400000Y-37000000D03*
X90400000Y-35600000D03*
%TD*%
%TO.C,LED12*%
X162800000Y-52100000D03*
X162800000Y-50700000D03*
X168200000Y-50700000D03*
X168200000Y-52100000D03*
%TD*%
%TO.C,LED10*%
X126600000Y-46100000D03*
X126600000Y-44700000D03*
X132000000Y-44700000D03*
X132000000Y-46100000D03*
%TD*%
D20*
%TO.C,PWR1*%
X71350000Y-29085000D03*
X78650000Y-29085000D03*
X71350000Y-26875000D03*
X78650000Y-26875000D03*
D21*
X77250000Y-29735000D03*
X74250000Y-29735000D03*
X72750000Y-29735000D03*
%TD*%
D17*
%TO.C,LED4*%
X113900000Y-30600000D03*
X113900000Y-32000000D03*
X108500000Y-32000000D03*
X108500000Y-30600000D03*
%TD*%
D22*
%TO.C,D22*%
X189830000Y-85950000D03*
X189830000Y-84650000D03*
X187170000Y-85300000D03*
%TD*%
D17*
%TO.C,LED13*%
X168200000Y-67800000D03*
X168200000Y-69200000D03*
X162800000Y-69200000D03*
X162800000Y-67800000D03*
%TD*%
%TO.C,LED8*%
X90400000Y-54100000D03*
X90400000Y-52700000D03*
X95800000Y-52700000D03*
X95800000Y-54100000D03*
%TD*%
%TO.C,LED16*%
X113900000Y-64800000D03*
X113900000Y-66200000D03*
X108500000Y-66200000D03*
X108500000Y-64800000D03*
%TD*%
%TO.C,LED2*%
X150100000Y-30600000D03*
X150100000Y-32000000D03*
X144700000Y-32000000D03*
X144700000Y-30600000D03*
%TD*%
M02*
