M48
; DRILL file {KiCad 8.0.5} date 2024-11-11T15:34:22+0000
; FORMAT={-:-/ absolute / inch / decimal}
; #@! TF.CreationDate,2024-11-11T15:34:22+00:00
; #@! TF.GenerationSoftware,Kicad,Pcbnew,8.0.5
; #@! TF.FileFunction,Plated,1,2,PTH
FMAT,2
INCH
; #@! TA.AperFunction,Plated,PTH,ViaDrill
T1C0.0157
; #@! TA.AperFunction,Plated,PTH,ComponentDrill
T2C0.0157
; #@! TA.AperFunction,Plated,PTH,ComponentDrill
T3C0.0295
; #@! TA.AperFunction,Plated,PTH,ComponentDrill
T4C0.0394
%
G90
G05
T1
X2.7579Y-1.4016
X2.7579Y-2.1299
X2.7579Y-2.748
X2.7929Y-1.4567
X2.7929Y-2.0748
X2.7929Y-2.8031
X2.8089Y-1.6754
X2.8531Y-1.2242
X2.8532Y-2.8809
X3.0105Y-2.5978
X3.0604Y-1.9248
X3.1126Y-1.4567
X3.1126Y-2.0748
X3.1126Y-2.8031
X3.1476Y-1.4016
X3.1476Y-2.1299
X3.1476Y-2.748
X3.1802Y-2.2117
X3.2341Y-2.838
X3.2351Y-2.0349
X3.2512Y-1.587
X3.2645Y-2.7102
X3.2765Y-1.4004
X3.3393Y-2.6362
X3.4705Y-1.4016
X3.4705Y-2.1299
X3.4705Y-2.748
X3.5055Y-1.4567
X3.5055Y-2.0748
X3.5055Y-2.8031
X3.6654Y-1.0844
X3.6654Y-1.1527
X3.7195Y-2.5956
X3.7263Y-3.1037
X3.7412Y-1.7587
X3.8252Y-1.4567
X3.8252Y-2.0748
X3.8252Y-2.8031
X3.8602Y-1.4016
X3.8602Y-2.1299
X3.8602Y-2.748
X3.8932Y-2.1945
X3.9409Y-2.0157
X3.9527Y-2.7059
X3.9532Y-2.6372
X3.9534Y-1.5766
X3.9535Y-2.8384
X3.9597Y-1.3188
X3.9887Y-1.4104
X4.0941Y-1.3936
X4.1403Y-1.8056
X4.1831Y-1.2047
X4.1831Y-1.9331
X4.1831Y-2.5512
X4.2181Y-1.2598
X4.2181Y-1.878
X4.2181Y-2.6063
X4.2761Y-2.174
X4.3028Y-1.7186
X4.4126Y-2.8975
X4.4697Y-2.4125
X4.4886Y-1.3391
X4.5378Y-1.2598
X4.5378Y-1.878
X4.5378Y-2.6063
X4.5728Y-1.2047
X4.5728Y-1.9331
X4.5728Y-2.5512
X4.6054Y-1.3391
X4.6057Y-2.0062
X4.6094Y-2.6234
X4.6505Y-2.6405
X4.6659Y-2.509
X4.7027Y-1.8646
X4.719Y-1.1748
X4.7624Y-1.8623
X4.8957Y-1.0866
X4.8957Y-1.815
X4.8957Y-2.4331
X4.9307Y-1.1417
X4.9307Y-1.7598
X4.9307Y-2.4882
X4.944Y-2.6261
X5.0369Y-1.4112
X5.1358Y-3.2953
X5.1709Y-3.2402
X5.1831Y-2.1121
X5.2237Y-2.9471
X5.241Y-1.6008
X5.2504Y-1.1417
X5.2504Y-1.7598
X5.2504Y-2.4882
X5.2829Y-1.8972
X5.2854Y-1.0866
X5.2854Y-1.815
X5.2854Y-2.4331
X5.3475Y-1.7105
X5.3742Y-2.6207
X5.4136Y-1.2313
X5.4146Y-2.435
X5.4906Y-3.2402
X5.5256Y-3.2953
X5.5571Y-3.3494
X5.6083Y-1.2047
X5.6083Y-1.9331
X5.6083Y-2.5512
X5.6433Y-1.2598
X5.6433Y-1.878
X5.6433Y-2.6063
X5.6547Y-3.2539
X5.6637Y-1.4507
X5.8444Y-2.8766
X5.8789Y-1.5526
X5.8789Y-2.4013
X5.963Y-1.2598
X5.963Y-1.878
X5.963Y-2.6063
X5.998Y-1.2047
X5.998Y-1.9331
X5.998Y-2.5512
X6.0178Y-3.368
X6.0302Y-1.3415
X6.0406Y-1.1482
X6.0659Y-3.3239
X6.0943Y-2.7356
X6.1266Y-1.8687
X6.1266Y-2.0252
X6.1796Y-3.2135
X6.1946Y-1.9129
X6.3209Y-1.3228
X6.3209Y-2.0512
X6.3209Y-2.6693
X6.3559Y-1.378
X6.3559Y-1.9961
X6.3559Y-2.7244
X6.3747Y-3.4066
X6.3943Y-3.4689
X6.4166Y-1.931
X6.428Y-1.6859
X6.4655Y-3.6115
X6.4755Y-3.4864
X6.5846Y-3.7106
X6.6343Y-3.1956
X6.6587Y-2.5667
X6.6756Y-1.378
X6.6756Y-1.9961
X6.6756Y-2.7244
X6.7106Y-1.3228
X6.7106Y-2.0512
X6.7106Y-2.6693
X6.7239Y-2.6089
X6.7259Y-2.5007
X6.7435Y-2.7915
X6.7437Y-1.4385
X6.7699Y-4.1419
X6.7913Y-2.0405
X6.7997Y-2.1837
X6.8025Y-1.3666
X6.8075Y-2.6074
X6.8163Y-2.5636
X6.8469Y-2.6506
X6.9053Y-2.4532
X6.9096Y-2.2288
X6.9173Y-4.1032
X6.941Y-2.4033
X6.957Y-1.6303
X6.9889Y-2.6093
X6.9951Y-2.9304
X7.0534Y-2.657
X7.0824Y-4.0167
X7.1074Y-4.077
X7.2657Y-3.7548
X7.3304Y-2.6948
X7.331Y-3.7577
X7.3689Y-3.324
X7.3826Y-2.6622
X7.4529Y-2.5227
X7.507Y-3.4173
X7.588Y-2.6575
X7.7087Y-2.6469
T2
X7.2141Y-1.4803
X7.2141Y-1.5803
X7.2141Y-1.6803
X7.2141Y-1.7803
X7.2141Y-1.8803
X7.2141Y-1.9803
X7.2141Y-2.0803
X7.2141Y-2.1803
X7.2141Y-2.2803
X7.2141Y-2.3803
X7.2141Y-2.4803
X7.2141Y-2.5803
X7.4709Y-1.4803
X7.4709Y-1.5803
X7.4709Y-1.6803
X7.4709Y-1.7803
X7.4709Y-1.8803
X7.4709Y-1.9803
X7.4709Y-2.0803
X7.4709Y-2.1803
X7.4709Y-2.2803
X7.4709Y-2.3803
X7.4709Y-2.4803
X7.4709Y-2.5803
T3
X7.2244Y-2.9252
X7.2244Y-3.0039
T4
X7.0425Y-1.4803
X7.0425Y-1.5803
X7.0425Y-1.6803
X7.0425Y-1.7803
X7.0425Y-1.8803
X7.0425Y-1.9803
X7.0425Y-2.0803
X7.0425Y-2.1803
X7.0425Y-2.2803
X7.0425Y-2.3803
X7.0425Y-2.4803
X7.0425Y-2.5803
X7.1425Y-2.7559
X7.2425Y-2.7559
X7.3425Y-2.7559
X7.4425Y-2.7559
X7.5425Y-2.7559
X7.6425Y-1.4803
X7.6425Y-1.5803
X7.6425Y-1.6803
X7.6425Y-1.7803
X7.6425Y-1.8803
X7.6425Y-1.9803
X7.6425Y-2.0803
X7.6425Y-2.1803
X7.6425Y-2.2803
X7.6425Y-2.3803
X7.6425Y-2.4803
X7.6425Y-2.5803
M30
