M48
; DRILL file {KiCad 8.0.5} date 2024-11-11T15:34:22+0000
; FORMAT={-:-/ absolute / inch / decimal}
; #@! TF.CreationDate,2024-11-11T15:34:22+00:00
; #@! TF.GenerationSoftware,Kicad,Pcbnew,8.0.5
; #@! TF.FileFunction,NonPlated,1,2,NPTH
FMAT,2
INCH
; #@! TA.AperFunction,NonPlated,NPTH,ComponentDrill
T1C0.0354
; #@! TA.AperFunction,NonPlated,NPTH,ComponentDrill
T2C0.0670
; #@! TA.AperFunction,NonPlated,NPTH,ComponentDrill
T3C0.1181
; #@! TA.AperFunction,NonPlated,NPTH,ComponentDrill
T4C0.1350
%
G90
G05
T1
X2.8937Y-1.1014
X3.0118Y-1.1014
T2
X2.7362Y-1.6063
X2.7362Y-2.2795
X2.7362Y-2.9528
X3.1693Y-1.6063
X3.1693Y-2.2795
X3.1693Y-2.9528
X3.4488Y-1.6063
X3.4488Y-2.2795
X3.4488Y-2.9528
X3.8819Y-1.6063
X3.8819Y-2.2795
X3.8819Y-2.9528
X4.1614Y-1.4094
X4.1614Y-2.0827
X4.1614Y-2.7559
X4.5945Y-1.4094
X4.5945Y-2.0827
X4.5945Y-2.7559
X4.874Y-1.2913
X4.874Y-1.9646
X4.874Y-2.6378
X5.1142Y-3.4449
X5.3071Y-1.2913
X5.3071Y-1.9646
X5.3071Y-2.6378
X5.5472Y-3.4449
X5.5866Y-1.4094
X5.5866Y-2.0827
X5.5866Y-2.7559
X5.9582Y-3.5069
X6.0197Y-1.4094
X6.0197Y-2.0827
X6.0197Y-2.7559
X6.2992Y-1.5276
X6.2992Y-2.2008
X6.2992Y-2.874
X6.3765Y-3.619
X6.7323Y-1.5276
X6.7323Y-2.2008
X6.7323Y-2.874
X6.9273Y-3.9773
X7.1757Y-3.6225
T3
X2.7559Y-1.7539
X2.7559Y-2.4272
X2.7559Y-3.1004
X2.9528Y-1.8406
X2.9528Y-2.5138
X2.9528Y-3.187
X3.1496Y-1.7539
X3.1496Y-2.4272
X3.1496Y-3.1004
X3.4685Y-1.7539
X3.4685Y-2.4272
X3.4685Y-3.1004
X3.6654Y-1.8406
X3.6654Y-2.5138
X3.6654Y-3.187
X3.8622Y-1.7539
X3.8622Y-2.4272
X3.8622Y-3.1004
X4.1811Y-1.5571
X4.1811Y-2.2303
X4.1811Y-2.9035
X4.378Y-1.6437
X4.378Y-2.3169
X4.378Y-2.9902
X4.5748Y-1.5571
X4.5748Y-2.2303
X4.5748Y-2.9035
X4.8937Y-1.439
X4.8937Y-2.1122
X4.8937Y-2.7854
X5.0906Y-1.5256
X5.0906Y-2.1988
X5.0906Y-2.872
X5.1339Y-3.5925
X5.2874Y-1.439
X5.2874Y-2.1122
X5.2874Y-2.7854
X5.3307Y-3.6791
X5.5276Y-3.5925
X5.6063Y-1.5571
X5.6063Y-2.2303
X5.6063Y-2.9035
X5.8031Y-1.6437
X5.8031Y-2.3169
X5.8031Y-2.9902
X5.939Y-3.6547
X6.0Y-1.5571
X6.0Y-2.2303
X6.0Y-2.9035
X6.1067Y-3.7893
X6.3189Y-1.6752
X6.3189Y-2.3484
X6.3189Y-3.0217
X6.3193Y-3.7565
X6.5157Y-1.7618
X6.5157Y-2.435
X6.5157Y-3.1083
X6.7126Y-1.6752
X6.7126Y-2.3484
X6.7126Y-3.0217
X6.8176Y-3.8765
X6.8596Y-3.6655
X7.0435Y-3.554
T4
X2.9528Y-1.6063
X2.9528Y-2.2795
X2.9528Y-2.9528
X3.6654Y-1.6063
X3.6654Y-2.2795
X3.6654Y-2.9528
X4.378Y-1.4094
X4.378Y-2.0827
X4.378Y-2.7559
X5.0906Y-1.2913
X5.0906Y-1.9646
X5.0906Y-2.6378
X5.3307Y-3.4449
X5.8031Y-1.4094
X5.8031Y-2.0827
X5.8031Y-2.7559
X6.1673Y-3.563
X6.5157Y-1.5276
X6.5157Y-2.2008
X6.5157Y-2.874
X7.0515Y-3.7999
M30
