%TF.GenerationSoftware,KiCad,Pcbnew,8.0.5*%
%TF.CreationDate,2024-11-11T15:34:29+00:00*%
%TF.ProjectId,kybd,6b796264-2e6b-4696-9361-645f70636258,v1.0.0*%
%TF.SameCoordinates,Original*%
%TF.FileFunction,Profile,NP*%
%FSLAX46Y46*%
G04 Gerber Fmt 4.6, Leading zero omitted, Abs format (unit mm)*
G04 Created by KiCad (PCBNEW 8.0.5) date 2024-11-11 15:34:29*
%MOMM*%
%LPD*%
G01*
G04 APERTURE LIST*
%TA.AperFunction,Profile*%
%ADD10C,0.150000*%
%TD*%
%TA.AperFunction,Profile*%
%ADD11C,0.120000*%
%TD*%
G04 APERTURE END LIST*
D10*
X157500000Y-27800000D02*
X157500000Y-27799082D01*
X139300000Y-24799918D02*
X139300000Y-24299000D01*
X155999918Y-26299082D02*
X140800082Y-26299918D01*
X119300000Y-24299000D02*
G75*
G02*
X120800000Y-22799000I1500000J0D01*
G01*
X174000000Y-29300000D02*
X159000000Y-29300000D01*
X64000000Y-27800000D02*
G75*
G02*
X65500000Y-26300000I1500000J0D01*
G01*
X137800000Y-22799000D02*
G75*
G02*
X139300000Y-24299000I0J-1500000D01*
G01*
X163249954Y-103772638D02*
X177051569Y-113393269D01*
X65500000Y-84500000D02*
G75*
G02*
X64000000Y-83000000I0J1500000D01*
G01*
X159000000Y-29300000D02*
G75*
G02*
X157500000Y-27800000I0J1500000D01*
G01*
X112585642Y-84500000D02*
G75*
G02*
X113637871Y-84930936I-42J-1500200D01*
G01*
X126358257Y-97081370D02*
G75*
G02*
X125568279Y-96673532I262243J1476970D01*
G01*
X119300000Y-24800000D02*
G75*
G02*
X117800000Y-26300000I-1500000J0D01*
G01*
X195999932Y-33300068D02*
G75*
G02*
X197499932Y-34800068I68J-1499932D01*
G01*
X137800000Y-22799000D02*
X120800000Y-22799000D01*
X64000000Y-27800000D02*
X64000000Y-83000000D01*
X113637851Y-84930956D02*
X125568293Y-96673517D01*
X175500000Y-31800932D02*
X175500000Y-30800000D01*
X197500000Y-86031440D02*
X197500000Y-34800068D01*
X162654430Y-103526282D02*
G75*
G02*
X163249940Y-103772658I-262230J-1476718D01*
G01*
X155999918Y-26299082D02*
G75*
G02*
X157500018Y-27799082I82J-1500018D01*
G01*
X119300000Y-24299000D02*
X119300000Y-24800000D01*
X174000000Y-29300000D02*
G75*
G02*
X175500000Y-30800000I0J-1500000D01*
G01*
X126358257Y-97081370D02*
X162654430Y-103526282D01*
X65500000Y-84500000D02*
X112585642Y-84500000D01*
X195999932Y-33300068D02*
X177000068Y-33300932D01*
X140800082Y-26299918D02*
G75*
G02*
X139299982Y-24799918I-82J1500018D01*
G01*
X117800000Y-26300000D02*
X65500000Y-26300000D01*
X197500000Y-86031440D02*
G75*
G02*
X197233304Y-86885255I-1500200J40D01*
G01*
X177000068Y-33300932D02*
G75*
G02*
X175500068Y-31800932I-68J1499932D01*
G01*
X179142631Y-113016535D02*
X197233293Y-86885248D01*
X179142631Y-113016535D02*
G75*
G02*
X177051529Y-113393327I-1233331J853735D01*
G01*
%TO.C,LED3*%
D11*
X127500000Y-26750000D02*
X131100000Y-26750000D01*
X131100000Y-29850000D01*
X127500000Y-29850000D01*
X127500000Y-26750000D01*
%TO.C,LED1*%
X163700000Y-32750000D02*
X167300000Y-32750000D01*
X167300000Y-35850000D01*
X163700000Y-35850000D01*
X163700000Y-32750000D01*
%TO.C,LED18*%
X73200000Y-68950000D02*
X76800000Y-68950000D01*
X76800000Y-72050000D01*
X73200000Y-72050000D01*
X73200000Y-68950000D01*
%TO.C,LED15*%
X127500000Y-60950000D02*
X131100000Y-60950000D01*
X131100000Y-64050000D01*
X127500000Y-64050000D01*
X127500000Y-60950000D01*
%TO.C,LED21*%
X185096123Y-98513170D02*
X183031248Y-101462117D01*
X180491877Y-99684030D01*
X182556752Y-96735083D01*
X185096123Y-98513170D01*
%TO.C,LED6*%
X73200000Y-34750000D02*
X76800000Y-34750000D01*
X76800000Y-37850000D01*
X73200000Y-37850000D01*
X73200000Y-34750000D01*
%TO.C,LED11*%
X149200000Y-49950000D02*
X145600000Y-49950000D01*
X145600000Y-46850000D01*
X149200000Y-46850000D01*
X149200000Y-49950000D01*
%TO.C,LED20*%
X159954536Y-85121989D02*
X159152197Y-88116359D01*
X155674864Y-87184611D01*
X156477203Y-84190241D01*
X159954536Y-85121989D01*
%TO.C,LED7*%
X76800000Y-54950000D02*
X73200000Y-54950000D01*
X73200000Y-51850000D01*
X76800000Y-51850000D01*
X76800000Y-54950000D01*
%TO.C,LED17*%
X91300000Y-68950000D02*
X94900000Y-68950000D01*
X94900000Y-72050000D01*
X91300000Y-72050000D01*
X91300000Y-68950000D01*
%TO.C,LED19*%
X137200000Y-84550000D02*
X133600000Y-84550000D01*
X133600000Y-81450000D01*
X137200000Y-81450000D01*
X137200000Y-84550000D01*
%TO.C,LED9*%
X113000000Y-49950000D02*
X109400000Y-49950000D01*
X109400000Y-46850000D01*
X113000000Y-46850000D01*
X113000000Y-49950000D01*
%TO.C,LED14*%
X145600000Y-63950000D02*
X149200000Y-63950000D01*
X149200000Y-67050000D01*
X145600000Y-67050000D01*
X145600000Y-63950000D01*
%TO.C,LED5*%
X91300000Y-34750000D02*
X94900000Y-34750000D01*
X94900000Y-37850000D01*
X91300000Y-37850000D01*
X91300000Y-34750000D01*
%TO.C,LED12*%
X167300000Y-52950000D02*
X163700000Y-52950000D01*
X163700000Y-49850000D01*
X167300000Y-49850000D01*
X167300000Y-52950000D01*
%TO.C,LED10*%
X131100000Y-46950000D02*
X127500000Y-46950000D01*
X127500000Y-43850000D01*
X131100000Y-43850000D01*
X131100000Y-46950000D01*
%TO.C,LED4*%
X109400000Y-29750000D02*
X113000000Y-29750000D01*
X113000000Y-32850000D01*
X109400000Y-32850000D01*
X109400000Y-29750000D01*
%TO.C,LED13*%
X163700000Y-66950000D02*
X167300000Y-66950000D01*
X167300000Y-70050000D01*
X163700000Y-70050000D01*
X163700000Y-66950000D01*
%TO.C,LED8*%
X94900000Y-54950000D02*
X91300000Y-54950000D01*
X91300000Y-51850000D01*
X94900000Y-51850000D01*
X94900000Y-54950000D01*
%TO.C,LED16*%
X109400000Y-63950000D02*
X113000000Y-63950000D01*
X113000000Y-67050000D01*
X109400000Y-67050000D01*
X109400000Y-63950000D01*
%TO.C,LED2*%
X145600000Y-29750000D02*
X149200000Y-29750000D01*
X149200000Y-32850000D01*
X145600000Y-32850000D01*
X145600000Y-29750000D01*
%TD*%
M02*
